<?xml version="1.0" encoding="UTF-8" standalone="no" ?>
<!DOCTYPE svg PUBLIC "-//W3C//DTD SVG 1.1//EN" "http://www.w3.org/Graphics/SVG/1.1/DTD/svg11.dtd">
<svg xmlns="http://www.w3.org/2000/svg" xmlns:xlink="http://www.w3.org/1999/xlink" version="1.1" width="48" height="48" viewBox="0 0 48 48" xml:space="preserve">
<desc>Created with Fabric.js 5.2.4</desc>
<defs>
</defs>
<g transform="matrix(1 0 0 1 24 24)" id="c3658a10-18a9-4cc5-bab3-37eb0115a01f"  >
<rect style="stroke: none; stroke-width: 1; stroke-dasharray: none; stroke-linecap: butt; stroke-dashoffset: 0; stroke-linejoin: miter; stroke-miterlimit: 4; fill: rgb(255,255,255); fill-rule: nonzero; opacity: 1; visibility: hidden;" vector-effect="non-scaling-stroke"  x="-24" y="-24" rx="0" ry="0" width="48" height="48" />
</g>
<g transform="matrix(Infinity NaN NaN Infinity 0 0)" id="8059fc39-96ed-44a4-9346-a562a45d5e1f"  >
</g>
<g transform="matrix(0.4 0 0 0.4 24 24)"  >
<g style="" vector-effect="non-scaling-stroke"   >
		<g transform="matrix(0.13 0 0 -0.13 -39.85 -1.24)"  >
<path style="stroke: none; stroke-width: 1; stroke-dasharray: none; stroke-linecap: butt; stroke-dashoffset: 0; stroke-linejoin: miter; stroke-miterlimit: 4; fill: rgb(0,0,0); fill-rule: nonzero; opacity: 1;" vector-effect="non-scaling-stroke"  transform=" translate(-494.76, -2244.75)" d="M 457 2393 C 455 2389 442 2354 430 2315 C 417 2277 395 2212 379 2173 C 364 2133 356 2098 361 2094 C 380 2083 408 2102 416 2133 C 426 2164 427 2165 492 2168 L 558 2171 L 567 2133 C 574 2102 581 2094 603 2092 C 620 2090 630 2093 630 2102 C 630 2109 608 2178 581 2255 L 532 2395 L 497 2398 C 478 2400 460 2397 457 2393 z M 520 2284 C 531 2248 540 2215 540 2211 C 540 2208 517 2204 490 2203 C 462 2203 440 2205 440 2208 C 440 2225 485 2350 492 2350 C 496 2350 508 2320 520 2284 z" stroke-linecap="round" />
</g>
		<g transform="matrix(0.13 0 0 -0.13 -10.48 -1.61)"  >
<path style="stroke: none; stroke-width: 1; stroke-dasharray: none; stroke-linecap: butt; stroke-dashoffset: 0; stroke-linejoin: miter; stroke-miterlimit: 4; fill: rgb(0,0,0); fill-rule: nonzero; opacity: 1;" vector-effect="non-scaling-stroke"  transform=" translate(-715, -2247.5)" d="M 692 2248 C 695 2103 696 2095 715 2095 C 734 2095 735 2103 738 2248 L 741 2400 L 715 2400 L 689 2400 L 692 2248 z" stroke-linecap="round" />
</g>
		<g transform="matrix(0.13 0 0 -0.13 4.3 -1.33)"  >
<path style="stroke: none; stroke-width: 1; stroke-dasharray: none; stroke-linecap: butt; stroke-dashoffset: 0; stroke-linejoin: miter; stroke-miterlimit: 4; fill: rgb(0,0,0); fill-rule: nonzero; opacity: 1;" vector-effect="non-scaling-stroke"  transform=" translate(-825.88, -2245.41)" d="M 828 2368 C 815 2350 792 2317 777 2296 L 751 2256 L 771 2226 C 781 2209 803 2174 817 2148 C 843 2103 878 2081 900 2095 C 905 2098 885 2137 856 2182 L 802 2262 L 851 2325 C 878 2360 900 2390 900 2394 C 900 2397 889 2400 876 2400 C 859 2400 843 2389 828 2368 z" stroke-linecap="round" />
</g>
		<g transform="matrix(0.13 0 0 -0.13 36.17 -1.67)"  >
<path style="stroke: none; stroke-width: 1; stroke-dasharray: none; stroke-linecap: butt; stroke-dashoffset: 0; stroke-linejoin: miter; stroke-miterlimit: 4; fill: rgb(0,0,0); fill-rule: nonzero; opacity: 1;" vector-effect="non-scaling-stroke"  transform=" translate(-1064.87, -2247.95)" d="M 932 2388 C 935 2381 956 2317 980 2245 C 1003 2174 1027 2110 1034 2104 C 1040 2097 1059 2094 1075 2097 C 1104 2102 1107 2107 1150 2238 C 1175 2314 1196 2381 1198 2388 C 1200 2395 1192 2400 1176 2400 C 1149 2400 1153 2409 1093 2203 C 1083 2168 1073 2140 1070 2140 C 1067 2140 1047 2199 1025 2270 C 986 2398 985 2400 957 2400 C 938 2400 929 2396 932 2388 z" stroke-linecap="round" />
</g>
		<g transform="matrix(0.13 0 0 -0.13 10.67 -11.11)"  >
<path style="stroke: none; stroke-width: 1; stroke-dasharray: none; stroke-linecap: butt; stroke-dashoffset: 0; stroke-linejoin: miter; stroke-miterlimit: 4; fill: rgb(0,0,0); fill-rule: nonzero; opacity: 1;" vector-effect="non-scaling-stroke"  transform=" translate(-873.59, -2318.78)" d="M 911 2384 C 910 2378 892 2349 870 2320 C 830 2267 813 2222 850 2270 C 899 2332 922 2370 917 2382 C 914 2389 911 2390 911 2384 z" stroke-linecap="round" />
</g>
		<g transform="matrix(0.13 0 0 -0.13 45.03 0.59)"  >
<path style="stroke: none; stroke-width: 1; stroke-dasharray: none; stroke-linecap: butt; stroke-dashoffset: 0; stroke-linejoin: miter; stroke-miterlimit: 4; fill: rgb(0,0,0); fill-rule: nonzero; opacity: 1;" vector-effect="non-scaling-stroke"  transform=" translate(-1131.34, -2231)" d="M 1165 2237 L 1115 2085 L 1075 2079 L 1035 2072 L 1080 2074 L 1125 2075 L 1173 2215 C 1199 2292 1223 2363 1226 2373 C 1229 2382 1228 2390 1223 2390 C 1219 2390 1193 2321 1165 2237 z" stroke-linecap="round" />
</g>
		<g transform="matrix(0.13 0 0 -0.13 -7.37 16.49)"  >
<path style="stroke: none; stroke-width: 1; stroke-dasharray: none; stroke-linecap: butt; stroke-dashoffset: 0; stroke-linejoin: miter; stroke-miterlimit: 4; fill: rgb(0,0,0); fill-rule: nonzero; opacity: 1;" vector-effect="non-scaling-stroke"  transform=" translate(-738.33, -2111.74)" d="M 762 2139 C 760 2108 741 2083 715 2077 C 702 2074 707 2072 728 2071 C 765 2070 773 2082 767 2132 C 764 2157 763 2159 762 2139 z" stroke-linecap="round" />
</g>
		<g transform="matrix(0.13 0 0 -0.13 -44.54 16.76)"  >
<path style="stroke: none; stroke-width: 1; stroke-dasharray: none; stroke-linecap: butt; stroke-dashoffset: 0; stroke-linejoin: miter; stroke-miterlimit: 4; fill: rgb(0,0,0); fill-rule: nonzero; opacity: 1;" vector-effect="non-scaling-stroke"  transform=" translate(-459.53, -2109.74)" d="M 429 2118 C 419 2095 406 2083 385 2079 C 356 2073 356 2072 392 2071 C 426 2070 430 2073 438 2103 C 446 2133 449 2135 501 2141 L 555 2147 L 499 2148 C 445 2150 443 2149 429 2118 z" stroke-linecap="round" />
</g>
</g>
</g>
</svg>