<?xml version="1.0" encoding="UTF-8" standalone="no" ?>
<!DOCTYPE svg PUBLIC "-//W3C//DTD SVG 1.1//EN" "http://www.w3.org/Graphics/SVG/1.1/DTD/svg11.dtd">
<svg xmlns="http://www.w3.org/2000/svg" xmlns:xlink="http://www.w3.org/1999/xlink" version="1.1" width="50" height="50" viewBox="0 0 50 50" xml:space="preserve">
<desc>Created with Fabric.js 5.2.4</desc>
<defs>
</defs>
<g transform="matrix(1 0 0 1 25 25)" id="5d39a982-140b-4235-8103-1769183c64e2"  >
<rect style="stroke: none; stroke-width: 1; stroke-dasharray: none; stroke-linecap: butt; stroke-dashoffset: 0; stroke-linejoin: miter; stroke-miterlimit: 4; fill: rgb(255,255,255); fill-rule: nonzero; opacity: 1; visibility: hidden;" vector-effect="non-scaling-stroke"  x="-25" y="-25" rx="0" ry="0" width="50" height="50" />
</g>
<g transform="matrix(Infinity NaN NaN Infinity 0 0)" id="3c236b83-fae7-4a8a-908a-ccd533ffab83"  >
</g>
<g transform="matrix(0.02 0 0 0.02 25 25)"  >
<g style="" vector-effect="non-scaling-stroke"   >
		<g transform="matrix(9.45 0 0 9.45 0.05 0.09)"  >
<path style="stroke: none; stroke-width: 1; stroke-dasharray: none; stroke-linecap: butt; stroke-dashoffset: 0; stroke-linejoin: miter; stroke-miterlimit: 4; fill: rgb(0,68,130); fill-rule: nonzero; opacity: 1;" vector-effect="non-scaling-stroke"  transform=" translate(-144.04, -144.01)" d="M 252.71 93.61 C 252.79339667113933 89.81716692042833 251.87960566639774 86.06889966701664 250.06 82.74 C 248.17405140468315 79.5221964850335 245.45527404133773 76.8725113037299 242.19 75.07 Q 198.77 50 155.32 25 C 147.51999999999998 20.490000000000002 139.95999999999998 20.65 132.20999999999998 25.23 C 120.69 32 63 65.09 45.81 75.06 C 38.730000000000004 79.16 35.290000000000006 85.44 35.290000000000006 93.6 L 35.290000000000006 194.39999999999998 C 35.21693357639933 198.11266011189076 36.09475588419238 201.78230160250797 37.84 205.05999999999997 C 39.726753303374856 208.37585019449014 42.49601494105821 211.10357290760822 45.84000000000002 212.93999999999997 C 63.03 222.93999999999997 120.73 255.98999999999995 132.25 262.78999999999996 C 140 267.36999999999995 147.56 267.53 155.37 263.02 Q 198.78 237.94 242.24 212.92999999999998 C 245.5839850589418 211.09357290760823 248.35324669662515 208.36585019449015 250.24 205.04999999999998 C 251.98524411580763 201.772301602508 252.86306642360069 198.10266011189077 252.79000000000002 194.39 L 252.79000000000002 93.61 z" stroke-linecap="round" />
</g>
		<g transform="matrix(9.45 0 0 9.45 513.24 -26.59)"  >
<path style="stroke: none; stroke-width: 1; stroke-dasharray: none; stroke-linecap: butt; stroke-dashoffset: 0; stroke-linejoin: miter; stroke-miterlimit: 4; fill: rgb(0,89,156); fill-rule: nonzero; opacity: 1;" vector-effect="non-scaling-stroke"  transform=" translate(-198.37, -141.19)" d="M 252.73 194.4 C 252.8052954841858 198.1129004631584 251.92734064561446 201.78309598440168 250.17999999999998 205.06 C 249.75097658154033 205.84045329186762 249.26639392941394 206.58904994066978 248.73 207.3 L 144 144 L 242.19 75.07 C 245.45219435837436 76.87315073657913 248.16757903659885 79.52289634497376 250.05 82.74 C 251.87750472072747 86.06622651203675 252.79505174699761 89.81575139006546 252.71 93.60999999999999 C 252.73000000000002 127.21000000000001 252.73000000000002 194.4 252.73000000000002 194.4 z" stroke-linecap="round" />
</g>
		<g transform="matrix(9.45 0 0 9.45 -12.96 -289.32)"  >
<path style="stroke: none; stroke-width: 1; stroke-dasharray: none; stroke-linecap: butt; stroke-dashoffset: 0; stroke-linejoin: miter; stroke-miterlimit: 4; fill: rgb(101,154,210); fill-rule: nonzero; opacity: 1;" vector-effect="non-scaling-stroke"  transform=" translate(-142.66, -113.37)" d="M 250.05 82.74 L 37.81 205.06 C 36.0725232695506 201.78374010658118 35.201608214597336 198.11763523098745 35.28 194.41000000000003 L 35.28 93.6 C 35.28 85.44 38.730000000000004 79.16 45.8 75.06 C 63 65.09 120.69 32 132.22 25.21 C 139.95 20.630000000000003 147.52 20.47 155.32 24.98 Q 198.73 50.06 242.19 75.07000000000001 C 245.45219435837436 76.87315073657915 248.16757903659885 79.52289634497377 250.05 82.74000000000001 z" stroke-linecap="round" />
</g>
		<g transform="matrix(9.45 0 0 9.45 -13.48 6.42)"  >
<path style="stroke: none; stroke-width: 1; stroke-dasharray: none; stroke-linecap: butt; stroke-dashoffset: 0; stroke-linejoin: miter; stroke-miterlimit: 4; fill: rgb(255,255,255); fill-rule: nonzero; opacity: 1;" vector-effect="non-scaling-stroke"  transform=" translate(-142.61, -144.68)" d="M 148.2 184.72 C 133.64421976389855 184.740381938485 120.23170003911434 176.83465959784792 113.19999999999999 164.09 Q 112.66999999999999 163.15 112.19999999999999 162.17000000000002 C 103.38353766995779 143.9615506919692 109.57396031257836 122.03666175646661 126.61154089718603 111.12801921748952 C 143.6491214817937 100.21937667851243 166.15238506448145 103.77257459820011 179 119.40000000000002 C 179.53 120.04 180 120.71000000000001 180.53 121.4 C 180.77 121.73 181.01 122.06 181.23 122.4 L 216.29999999999998 102.2 Q 215.01999999999998 100.14 213.61999999999998 98.2 C 213.12999999999997 97.51 212.61999999999998 96.85000000000001 212.14 96.2 C 186.8721243118132 63.37452981547144 140.7072904442446 55.304086719846275 105.80143879263368 77.61010732202374 C 70.89558714102276 99.91612792420119 58.826129095239025 145.2002545058302 77.99999999999997 181.9199999999999 C 78.34 182.55999999999997 78.69 183.19 79 183.82 C 92.8173634961274 208.19870152646348 118.39483002523289 223.5585188424159 146.40717790606115 224.29945629184306 C 174.4195257868894 225.04039374127018 200.77320632422436 211.05417537592797 215.86 187.44 L 181.57000000000002 166.71 C 174.19490541492894 177.95590251427072 161.64850514321563 184.7272740723635 148.20000000000002 184.72 z" stroke-linecap="round" />
</g>
</g>
</g>
</svg>