<?xml version="1.0" encoding="UTF-8" standalone="no" ?>
<!DOCTYPE svg PUBLIC "-//W3C//DTD SVG 1.1//EN" "http://www.w3.org/Graphics/SVG/1.1/DTD/svg11.dtd">
<svg xmlns="http://www.w3.org/2000/svg" xmlns:xlink="http://www.w3.org/1999/xlink" version="1.1" width="50" height="50" viewBox="-225 -225 50 50" xml:space="preserve">
<desc>Created with Fabric.js 5.2.4</desc>
<defs>
</defs>
<rect x="0" y="0" width="100%" height="100%" fill="transparent"></rect>
<g transform="matrix(1 0 0 1 25 25)" id="88dd61a4-a768-463d-9c13-83ab4ff9bfd9"  >
<rect style="stroke: none; stroke-width: 1; stroke-dasharray: none; stroke-linecap: butt; stroke-dashoffset: 0; stroke-linejoin: miter; stroke-miterlimit: 4; fill: rgb(255,255,255); fill-rule: nonzero; opacity: 1; visibility: hidden;" vector-effect="non-scaling-stroke"  x="-25" y="-25" rx="0" ry="0" width="50" height="50" />
</g>
<g transform="matrix(Infinity NaN NaN Infinity 0 0)" id="78882d17-d79d-4f1c-9bf9-5e1d33fe65b2"  >
</g>
<g transform="matrix(0.02 0 0 0.02 -199.8 -199.66)"  >
<g style="opacity: 1;" vector-effect="non-scaling-stroke"   >
		<g transform="matrix(8.68 0 0 8.68 0 0)"  >
<path style="stroke: none; stroke-width: 1; stroke-dasharray: none; stroke-linecap: butt; stroke-dashoffset: 0; stroke-linejoin: miter; stroke-miterlimit: 4; fill: rgb(92,141,188); fill-rule: nonzero; opacity: 1;" vector-effect="non-scaling-stroke"  transform=" translate(-127.79, -143.89)" d="M 255.569 84.72 C 255.56699999999998 79.89 254.534 75.622 252.445 71.959 C 250.393 68.357 247.32 65.33800000000001 243.19799999999998 62.95100000000001 C 209.17299999999997 43.33200000000001 175.11499999999998 23.77300000000001 141.101 4.1340000000000074 C 131.931 -1.1599999999999921 123.03999999999999 -0.9669999999999925 113.938 4.403000000000008 C 100.395 12.39 32.59 51.237 12.385 62.94 C 4.064 67.757 0.015 75.129 0.013 84.711 C 0 124.166 0.013 163.62 0 203.076 C 0.002 207.79999999999998 0.991 211.98499999999999 2.988 215.593 C 5.041 219.304 8.157 222.40599999999998 12.373999999999999 224.84699999999998 C 32.58 236.54999999999998 100.39399999999999 275.394 113.934 283.383 C 123.03999999999999 288.756 131.93099999999998 288.948 141.10399999999998 283.652 C 175.11899999999997 264.012 209.17899999999997 244.45399999999998 243.209 224.83499999999998 C 247.42600000000002 222.39499999999998 250.542 219.29099999999997 252.595 215.58299999999997 C 254.589 211.97499999999997 255.58 207.78999999999996 255.582 203.06499999999997 C 255.582 203.06499999999997 255.582 124.17599999999997 255.569 84.71999999999997" stroke-linecap="round" />
</g>
		<g transform="matrix(8.68 0 0 8.68 0 621.65)"  >
<path style="stroke: none; stroke-width: 1; stroke-dasharray: none; stroke-linecap: butt; stroke-dashoffset: 0; stroke-linejoin: miter; stroke-miterlimit: 4; fill: rgb(26,70,116); fill-rule: nonzero; opacity: 1;" vector-effect="non-scaling-stroke"  transform=" translate(-127.79, -215.51)" d="M 128.182 143.509 L 2.988 215.593 C 5.041 219.304 8.157 222.40599999999998 12.373999999999999 224.84699999999998 C 32.58 236.54999999999998 100.39399999999999 275.394 113.934 283.383 C 123.03999999999999 288.756 131.93099999999998 288.948 141.10399999999998 283.652 C 175.11899999999997 264.012 209.17899999999997 244.45399999999998 243.209 224.83499999999998 C 247.42600000000002 222.39499999999998 250.542 219.29099999999997 252.595 215.58299999999997 L 128.18200000000002 143.50899999999996" stroke-linecap="round" />
</g>
		<g transform="matrix(8.68 0 0 8.68 0.6 181.74)"  >
<path style="stroke: none; stroke-width: 1; stroke-dasharray: none; stroke-linecap: butt; stroke-dashoffset: 0; stroke-linejoin: miter; stroke-miterlimit: 4; fill: rgb(26,70,116); fill-rule: nonzero; opacity: 1;" vector-effect="non-scaling-stroke"  transform=" translate(-127.86, -164.83)" d="M 91.101 164.861 C 98.386 177.57899999999998 112.081 186.15699999999998 127.791 186.15699999999998 C 143.59799999999998 186.15699999999998 157.37099999999998 177.46999999999997 164.619 164.61599999999999 L 128.18200000000002 143.509 L 91.10100000000001 164.861" stroke-linecap="round" />
</g>
		<g transform="matrix(8.68 0 0 8.68 556.29 -1.07)"  >
<path style="stroke: none; stroke-width: 1; stroke-dasharray: none; stroke-linecap: butt; stroke-dashoffset: 0; stroke-linejoin: miter; stroke-miterlimit: 4; fill: rgb(27,89,142); fill-rule: nonzero; opacity: 1;" vector-effect="non-scaling-stroke"  transform=" translate(-191.88, -143.77)" d="M 255.569 84.72 C 255.56699999999998 79.89 254.534 75.622 252.445 71.959 L 128.182 143.50900000000001 L 252.59499999999997 215.58300000000003 C 254.58899999999997 211.97500000000002 255.57999999999998 207.79000000000002 255.58199999999997 203.06500000000003 C 255.58199999999997 203.06500000000003 255.58199999999997 124.17600000000003 255.56899999999996 84.72000000000003" stroke-linecap="round" />
</g>
		<g transform="matrix(8.68 0 0 8.68 769.17 -0.8)"  >
<path style="stroke: none; stroke-width: 1; stroke-dasharray: none; stroke-linecap: butt; stroke-dashoffset: 0; stroke-linejoin: miter; stroke-miterlimit: 4; fill: rgb(255,255,255); fill-rule: nonzero; opacity: 1;" vector-effect="non-scaling-stroke"  transform=" translate(-216.41, -143.8)" d="M 248.728 148.661 L 239.006 148.661 L 239.006 158.385 L 229.282 158.385 L 229.282 148.661 L 219.561 148.661 L 219.561 138.94 L 229.282 138.94 L 229.282 129.218 L 239.006 129.218 L 239.006 138.94 L 248.728 138.94 L 248.728 148.661 M 213.253 148.661 L 203.53199999999998 148.661 L 203.53199999999998 158.385 L 193.80999999999997 158.385 L 193.80999999999997 148.661 L 184.08799999999997 148.661 L 184.08799999999997 138.94 L 193.80999999999997 138.94 L 193.80999999999997 129.218 L 203.53199999999998 129.218 L 203.53199999999998 138.94 L 213.253 138.94 L 213.253 148.661" stroke-linecap="round" />
</g>
		<g transform="matrix(8.68 0 0 8.68 -48.44 0)"  >
<path style="stroke: none; stroke-width: 1; stroke-dasharray: none; stroke-linecap: butt; stroke-dashoffset: 0; stroke-linejoin: miter; stroke-miterlimit: 4; fill: rgb(255,255,255); fill-rule: nonzero; opacity: 1;" vector-effect="non-scaling-stroke"  transform=" translate(-122.21, -143.89)" d="M 164.619 164.616 C 157.371 177.47000000000003 143.598 186.157 127.791 186.157 C 112.08099999999999 186.157 98.386 177.579 91.101 164.86100000000002 C 87.44134986783962 158.47936480468042 85.51941134555959 151.24951067207053 85.52699999999999 143.89300000000003 C 85.527 120.55200000000002 104.45 101.63000000000002 127.791 101.63000000000002 C 143.4 101.63000000000002 157.023 110.10100000000003 164.344 122.68900000000002 L 201.285 101.41700000000003 C 186.602 76.07100000000003 159.189 59.01900000000003 127.791 59.01900000000003 C 80.91499999999999 59.01900000000003 42.916 97.01900000000003 42.916 143.89300000000003 C 42.916 159.27100000000002 47.007 173.69200000000004 54.157 186.13100000000003 C 68.803 211.61100000000002 96.294 228.76800000000003 127.791 228.76800000000003 C 159.346 228.76800000000003 186.88 211.54200000000003 201.505 185.98700000000002 L 164.619 164.616" stroke-linecap="round" />
</g>
</g>
</g>
</svg>