<?xml version="1.0" encoding="UTF-8"?>
<svg version="1.1" xmlns="http://www.w3.org/2000/svg" width="225" height="225">
<path d="M0 0 C2.989346 1.99289734 5.45559759 4.47480063 8 7 C13.20651047 12.16469111 18.45027452 15.97232802 24.875 19.4375 C39.76945711 27.54415009 49.27095637 37.68987703 56.3125 53.0625 C59.24647548 59.28419268 62.88149687 63.45334639 68.0012207 67.91821289 C70.62849837 70.27075358 71.93150875 71.7598397 72.91015625 75.19140625 C73.029383 78.91853825 72.34617246 80.08505846 70 83 C68.74291511 84.09925705 67.47036708 85.1809441 66.1875 86.25 C60.54353293 91.03442713 56.90403661 96.63939343 54.0625 103.4375 C47.22735191 119.55494797 33.47686933 128.80514424 17.9375 135.75 C11.52580748 138.81090108 7.25159391 143.35028588 2.49609375 148.48828125 C-0 151 -0 151 -3 152 C-7.50505821 150.8225416 -9.51864998 148.52583494 -12.5 145.0625 C-17.43268295 139.71351951 -22.953348 136.63814646 -29.4375 133.4375 C-44.98140317 125.69353208 -53.72599403 117.12519849 -61.796875 101.52734375 C-65.20625319 94.95750214 -68.38754731 89.84648521 -74 85 C-78.73538462 80.38923077 -78.73538462 80.38923077 -79.5 76.375 C-78.64940703 70.63349742 -74.26775949 67.37046846 -70.37207031 63.29833984 C-65.85051086 58.38258686 -62.79140857 53.35981238 -59.875 47.375 C-51.61885528 30.59893596 -38.59707492 21.77470951 -22 14 C-21.34 14 -20.68 14 -20 14 C-19.7628125 13.43667969 -19.525625 12.87335937 -19.28125 12.29296875 C-17.71350057 9.48727084 -15.79085403 7.56244592 -13.5 5.3125 C-12.7059375 4.52488281 -11.911875 3.73726562 -11.09375 2.92578125 C-7.45285707 -0.42302512 -4.9152141 -0.63422117 0 0 Z M-4 9 C-4.33 9.66 -4.66 10.32 -5 11 C-1.33019796 13.91171789 -1.33019796 13.91171789 3 15 C1.9024777 12.00675737 1.32317108 11.15389099 -1.625 9.75 C-2.40875 9.5025 -3.1925 9.255 -4 9 Z M-9 14 C-9.33 14.66 -9.66 15.32 -10 16 C-9.01 15.67 -8.02 15.34 -7 15 C-7.66 14.67 -8.32 14.34 -9 14 Z M4 16 C3.67 16.99 3.34 17.98 3 19 C3.99 18.67 4.98 18.34 6 18 C5.34 17.34 4.68 16.68 4 16 Z M-14 19 C-18.09274642 20.23734194 -21.36739331 21.77776067 -25 24 C-31.61416978 27.69774638 -31.61416978 27.69774638 -33.74023438 28.86328125 C-38.66206044 31.62811032 -43.66514157 34.56243243 -46.4375 39.625 C-47.25010279 42.12694931 -47.25010279 42.12694931 -46 45 C-45.53851563 44.49210937 -45.07703125 43.98421875 -44.6015625 43.4609375 C-39.55051628 38.13038675 -34.39339359 34.5429638 -28 31 C-27.29230469 30.53464844 -26.58460937 30.06929687 -25.85546875 29.58984375 C-16.17642327 23.43045117 -4.06052057 23.02953015 7 25 C20.55945397 28.11174152 29.58816233 33.92896747 39 44 C40.32872773 45.33792308 41.66067425 46.67268614 43 48 C40.51038499 39.14803551 32.62530579 33.35200379 25 29 C22.42541679 27.68393139 19.83334121 26.41499346 17.2265625 25.1640625 C14.53337294 23.7560441 12.3395233 21.92666625 10 20 C7.81785432 19.22166466 7.81785432 19.22166466 6 19 C6 19.66 6 20.32 6 21 C-0.27 21 -6.54 21 -13 21 C-13.495 20.01 -13.495 20.01 -14 19 Z M-4 28 C-4.33 28.33 -4.66 28.66 -5 29 C-6.62586667 28.96700271 -8.25102719 28.89760906 -9.875 28.8125 C-21.09800819 28.76899997 -29.65339009 33.81509677 -38 41 C-42.03588395 45.06256748 -45.60041498 49.39812272 -49 54 C-49.66 53.67 -50.32 53.34 -51 53 C-50.505 52.21625 -50.01 51.4325 -49.5 50.625 C-47.83462035 48.21447673 -47.83462035 48.21447673 -48 46 C-51.16115776 47.36983503 -51.9927092 47.9890638 -54 51 C-54.45394552 53.27912938 -54.45394552 53.27912938 -54.625 55.6875 C-54.69976562 56.49574219 -54.77453125 57.30398437 -54.8515625 58.13671875 C-54.90054688 58.75160156 -54.94953125 59.36648437 -55 60 C-53.906875 59.38125 -52.81375 58.7625 -51.6875 58.125 C-51.07261719 57.77695313 -50.45773438 57.42890625 -49.82421875 57.0703125 C-48.18017711 56.10571419 -46.58599412 55.05732941 -45 54 C-42.3125 54.875 -42.3125 54.875 -40 56 C-41 59 -41 59 -43 60 C-44.54828113 63.78468721 -45.24012841 66.91781703 -45 71 C-41.93465728 68.26604568 -40.10863582 66.25801007 -38.5 62.4375 C-36.79000849 58.51876945 -35.66743684 57.15262597 -32 55 C-25.90027318 53.12103204 -19.88355714 52.68137001 -13.5390625 52.6640625 C-12.6678476 52.6574057 -11.79663269 52.6507489 -10.89901733 52.64389038 C-9.06876718 52.63383417 -7.23848088 52.62907116 -5.40820312 52.62939453 C-2.63869697 52.62502163 0.12921223 52.58862831 2.8984375 52.55078125 C12.35708103 52.4909528 20.33263613 52.77653775 29 57 C30.66287711 57.67606357 32.32862885 58.34521707 34 59 C34.33 57.68 34.66 56.36 35 55 C39.1724106 55.51881113 41.25416821 56.71151274 44.3125 59.5625 C45.00988281 60.20316406 45.70726562 60.84382813 46.42578125 61.50390625 C46.94527344 61.99761719 47.46476562 62.49132812 48 63 C48.66 62.67 49.32 62.34 50 62 C48.35 58.37 46.7 54.74 45 51 C43.68 51.33 42.36 51.66 41 52 C40.29617187 51.154375 39.59234375 50.30875 38.8671875 49.4375 C30.0160157 39.14554569 19.59851427 30.40256518 5.60546875 28.55078125 C4.47753906 28.47214844 3.34960938 28.39351562 2.1875 28.3125 C0.47626953 28.18294922 0.47626953 28.18294922 -1.26953125 28.05078125 C-2.17058594 28.03402344 -3.07164063 28.01726562 -4 28 Z M16 61 C16.33 62.32 16.66 63.64 17 65 C17.99 65 18.98 65 20 65 C19.67 63.68 19.34 62.36 19 61 C18.01 61 17.02 61 16 61 Z M-36 68 C-36 69.98 -36 71.96 -36 74 C-34.02 74.66 -32.04 75.32 -30 76 C-29.67 77.65 -29.34 79.3 -29 81 C-27.00045254 81.04254356 -24.99958364 81.04080783 -23 81 C-21.70366379 79.93354885 -21.70366379 79.93354885 -21.9375 77.4375 C-21.958125 76.633125 -21.97875 75.82875 -22 75 C-20.02 75 -18.04 75 -16 75 C-15.95745644 73.00045254 -15.95919217 70.99958364 -16 69 C-17.10649557 67.68465212 -17.10649557 67.68465212 -19.875 67.6875 C-23.09664711 67.66360191 -23.09664711 67.66360191 -24.875 70 C-25.24625 70.66 -25.6175 71.32 -26 72 C-26.391875 71.360625 -26.78375 70.72125 -27.1875 70.0625 C-29.74711305 67.14983687 -32.43763925 66.21881963 -36 68 Z M25 69 C24.67 70.32 24.34 71.64 24 73 C25.32 73.33 26.64 73.66 28 74 C28.33 72.68 28.66 71.36 29 70 C27.68 69.67 26.36 69.34 25 69 Z M9 70 C9 71.32 9 72.64 9 74 C10.32 73.67 11.64 73.34 13 73 C13 72.01 13 71.02 13 70 C11.68 70 10.36 70 9 70 Z M16 78 C16 79.32 16 80.64 16 82 C17.65 81.67 19.3 81.34 21 81 C20.67 80.01 20.34 79.02 20 78 C18.68 78 17.36 78 16 78 Z M-20.0625 82.9375 C-22.9789965 87.54744609 -26 92.44716548 -26 98 C-24.19600431 99.07545897 -22.38966163 100.14710437 -20.57421875 101.203125 C-17.21897901 103.54517398 -14.435541 106.28565981 -11.5625 109.1875 C-11.03043945 109.7230249 -10.49837891 110.2585498 -9.95019531 110.81030273 C-6.14782672 114.70434655 -6.14782672 114.70434655 -5 117 C-4.34 117 -3.68 117 -3 117 C-3 116.34 -3 115.68 -3 115 C-2.4328125 114.76152344 -1.865625 114.52304688 -1.28125 114.27734375 C1.48163967 112.73031477 3.31041441 110.84581785 5.5 108.5625 C7.68830797 106.28800867 9.72777041 104.19811229 12.28125 102.33984375 C12.8484375 101.89769531 13.415625 101.45554687 14 101 C14 100.34 14 99.68 14 99 C15.98 99.33 17.96 99.66 20 100 C19.57312017 98.10174715 19.13300518 96.20646817 18.6875 94.3125 C18.44386719 93.25675781 18.20023438 92.20101562 17.94921875 91.11328125 C16.99347342 87.97859388 15.92929692 85.64385134 14 83 C13.01 82.67 12.02 82.34 11 82 C10.02391783 84.92824652 9.91773332 86.95613276 10 90 C8.35 90 6.7 90 5 90 C4.67 88.02 4.34 86.04 4 84 C3.32453125 84.10699219 2.6490625 84.21398437 1.953125 84.32421875 C1.06109375 84.44410156 0.1690625 84.56398438 -0.75 84.6875 C-2.07257813 84.87892578 -2.07257813 84.87892578 -3.421875 85.07421875 C-6.55676517 84.98397191 -7.71823587 84.07384637 -10 82 C-10.99 82.495 -10.99 82.495 -12 83 C-11.67 85.31 -11.34 87.62 -11 90 C-13.97 89.505 -13.97 89.505 -17 89 C-17 87.35 -17 85.7 -17 84 C-15.68 83.67 -14.36 83.34 -13 83 C-13 82.34 -13 81.68 -13 81 C-16.35370927 80.53420705 -17.54525478 80.57281509 -20.0625 82.9375 Z M42 89 C41.82984375 89.75925781 41.6596875 90.51851563 41.484375 91.30078125 C41.24203125 92.29464844 40.9996875 93.28851563 40.75 94.3125 C40.51796875 95.29863281 40.2859375 96.28476563 40.046875 97.30078125 C38.83307286 100.43039796 37.92640893 101.41137801 35 103 C32.640625 103.51171875 32.640625 103.51171875 30.25 103.6875 C29.45078125 103.75324219 28.6515625 103.81898438 27.828125 103.88671875 C27.22484375 103.92410156 26.6215625 103.96148437 26 104 C26.99 105.32 27.98 106.64 29 108 C33.23429756 106.68938409 37.07407404 105.05643741 41 103 C38.21735869 111.11603714 32.04633199 117.33681907 24.4375 121.125 C22.96845631 121.77343633 21.49265094 122.40792551 20 123 C20.66 121.02 21.32 119.04 22 117 C17.95838045 118.34484714 15.61321846 120.0505162 12.6875 123.125 C11.99011719 123.84945312 11.29273437 124.57390625 10.57421875 125.3203125 C9.79498047 126.15175781 9.79498047 126.15175781 9 127 C9.66 127.66 10.32 128.32 11 129 C24.75755392 125.33233384 24.75755392 125.33233384 35 116 C36.66666667 114.33333333 38.33333333 112.66666667 40 111 C42.91191634 107.63477742 44.25830451 104.10986003 45.75 99.9375 C46.42289063 98.09478516 46.42289063 98.09478516 47.109375 96.21484375 C48.31652952 93.01954128 48.31652952 93.01954128 47 90 C45.35 89.67 43.7 89.34 42 89 Z M-54 91 C-54.93045933 93.55144824 -55.08564091 94.74006478 -54.22265625 97.359375 C-53.83980469 98.14828125 -53.45695312 98.9371875 -53.0625 99.75 C-52.68222656 100.54921875 -52.30195312 101.3484375 -51.91015625 102.171875 C-51.45962891 103.07679688 -51.45962891 103.07679688 -51 104 C-50.319375 103.7525 -49.63875 103.505 -48.9375 103.25 C-45.67592973 102.97241955 -45.13716482 103.3149844 -42.5 105 C-39.93339525 106.62514275 -39.28174868 107.01224994 -36.125 106.875 C-33.82668286 106.20068301 -33.82668286 106.20068301 -33 104 C-38.94 103.01 -38.94 103.01 -45 102 C-45.226875 101.113125 -45.45375 100.22625 -45.6875 99.3125 C-47.18389846 95.5358753 -48.92491737 93.61382024 -52 91 C-52.66 91 -53.32 91 -54 91 Z M21 101 C21.33 101.66 21.66 102.32 22 103 C22.66 102.67 23.32 102.34 24 102 C23.01 101.67 22.02 101.34 21 101 Z M-47 110 C-47 110.66 -47 111.32 -47 112 C-46.34 112 -45.68 112 -45 112 C-45 111.34 -45 110.68 -45 110 C-45.66 110 -46.32 110 -47 110 Z M-42 115 C-40.01709421 118.73919378 -38.36555158 120.78561944 -34.6875 122.875 C-33.80578125 123.38160156 -32.9240625 123.88820313 -32.015625 124.41015625 C-28.70361138 126.1562567 -25.32760561 127.72384661 -21.9375 129.3125 C-15.19932942 132.60802447 -8.46029735 137.0794053 -5 144 C-3.00016466 143.20882096 -3.00016466 143.20882096 -1 142 C-0.505 140.515 -0.505 140.515 0 139 C0.598125 138.731875 1.19625 138.46375 1.8125 138.1875 C4.93576046 136.49201575 6.18267347 133.98560787 8 131 C5.0080265 130.6634845 5.0080265 130.6634845 3.39453125 132.4609375 C2.87246094 133.09257812 2.35039063 133.72421875 1.8125 134.375 C1.28269531 135.00148437 0.75289062 135.62796875 0.20703125 136.2734375 C-1.19098815 137.92208633 -1.19098815 137.92208633 -1 140 C-5.83596526 138.82764479 -7.97679203 135.95920689 -11.03125 132.30859375 C-13.1870278 129.78068764 -15.43301321 127.38092961 -17.75 125 C-18.48734375 124.236875 -19.2246875 123.47375 -19.984375 122.6875 C-21.9452515 120.67903167 -21.9452515 120.67903167 -25 121 C-25 121.66 -25 122.32 -25 123 C-30.7679546 122.85210373 -33.82966399 120.06064115 -38.046875 116.49609375 C-39.8545734 114.79730061 -39.8545734 114.79730061 -42 115 Z " fill="#46D4ED" transform="translate(116,36)"/>
<path d="M0 0 C4.39486496 2.92990998 6.46889705 6.91984678 7.75 11.9375 C7.8325 12.618125 7.915 13.29875 8 14 C9.65 14.33 11.3 14.66 13 15 C12.67 15.99 12.34 16.98 12 18 C11.34 18 10.68 18 10 18 C10 17.34 10 16.68 10 16 C9.01 16 8.02 16 7 16 C7 15.34 7 14.68 7 14 C6.34 14 5.68 14 5 14 C5 13.34 5 12.68 5 12 C4.34 12 3.68 12 3 12 C3 11.01 3 10.02 3 9 C-1.03919684 8.58822123 -1.03919684 8.58822123 -5 9 C-7.30755015 11.66892836 -7.30755015 11.66892836 -9 15 C-12.45021038 18.99498044 -14.97640414 20.53478454 -20 22 C-21.68015254 22.97717205 -23.34443159 23.98173136 -25 25 C-31.11650485 28.44761327 -31.11650485 28.44761327 -33.828125 29.95117188 C-41.7278045 34.39221667 -41.7278045 34.39221667 -46 42 C-47.17144627 44.88356004 -48.06943776 46.05902209 -50.5 48.125 C-53.15872751 51.18253663 -53.41299359 52.21873685 -54 56.0625 C-54.73354084 60.74055293 -54.73354084 60.74055293 -57.375 63.3125 C-58.674375 64.1478125 -58.674375 64.1478125 -60 65 C-61.0828125 66.36125 -61.0828125 66.36125 -62.1875 67.75 C-62.785625 68.4925 -63.38375 69.235 -64 70 C-64.66 70 -65.32 70 -66 70 C-67.8454602 73.11421408 -68.46369062 75.38321316 -68 79 C-66.44309856 81.13049671 -64.96435182 82.0187622 -62.625 83.25 C-56.16293266 87.55804489 -53.33798918 94.85541853 -51 102 C-51 102.66 -51 103.32 -51 104 C-50.27941406 103.61714844 -49.55882813 103.23429687 -48.81640625 102.83984375 C-46 102 -46 102 -43.46484375 102.94140625 C-38.82471331 105.91768775 -35.26635985 108.4773479 -32 113 C-31.319375 113.33 -30.63875 113.66 -29.9375 114 C-27.18689173 115.41966878 -26.33503921 117.26316962 -25 120 C-25 120.99 -25 121.98 -25 123 C-26.71484375 123.67578125 -26.71484375 123.67578125 -29 124 C-31.25390625 122.85546875 -31.25390625 122.85546875 -33.5625 121.1875 C-34.32691406 120.64480469 -35.09132812 120.10210937 -35.87890625 119.54296875 C-36.57886719 119.03378906 -37.27882812 118.52460938 -38 118 C-38.99 117.34 -39.98 116.68 -41 116 C-37.13514483 120.33195267 -33.29904284 122.63628377 -28.0625 125.0625 C-20.92082215 128.42995781 -14.75433318 131.95775885 -9.125 137.625 C-8.34382813 138.40101563 -7.56265625 139.17703125 -6.7578125 139.9765625 C-5 142 -5 142 -5 144 C-0.16173361 140.03074262 3.69509898 136.38576462 7 131 C9.49337286 127.83443257 11.86898158 127.3554492 15.75 126.5625 C20.88642773 125.39343412 24.57243046 123.79129384 29 121 C29.66 121 30.32 121 31 121 C31.226875 120.4225 31.45375 119.845 31.6875 119.25 C33 117 33 117 35.375 115.125 C40.49898096 110.97701541 42.61193706 105.83708258 44.625 99.6875 C45.36248153 97.4398254 46.14162192 95.20433827 47 93 C47.66 92.67 48.32 92.34 49 92 C49.37125 91.13375 49.37125 91.13375 49.75 90.25 C51.52465206 87.05562629 54.18733177 85.2960557 57 83 C59.00840668 80.85769954 59.86540247 79.60568886 60.5 76.75 C59.50555771 71.28056742 56.10986522 67.10986522 52.25 63.25 C49.09090909 60.09090909 49.09090909 60.09090909 49 57 C49.588562 54.645752 50.24592899 52.30657014 51 50 C53.1875 50.4375 53.1875 50.4375 56 52 C57.05859375 53.75 57.05859375 53.75 58.125 55.9375 C60.90954693 61.50659385 65.11907728 65.21574487 69.671875 69.32421875 C72.30480813 72.35032478 72.84077364 74.0358126 73 78 C71.56271584 81.73693883 69.18826308 83.7493641 66.1875 86.25 C60.54353293 91.03442713 56.90403661 96.63939343 54.0625 103.4375 C47.22735191 119.55494797 33.47686933 128.80514424 17.9375 135.75 C11.52580748 138.81090108 7.25159391 143.35028588 2.49609375 148.48828125 C-0 151 -0 151 -3 152 C-7.50505821 150.8225416 -9.51864998 148.52583494 -12.5 145.0625 C-17.43268295 139.71351951 -22.953348 136.63814646 -29.4375 133.4375 C-44.98140317 125.69353208 -53.72599403 117.12519849 -61.796875 101.52734375 C-65.20625319 94.95750214 -68.38754731 89.84648521 -74 85 C-78.73538462 80.38923077 -78.73538462 80.38923077 -79.5 76.375 C-78.64940703 70.63349742 -74.26775949 67.37046846 -70.37207031 63.29833984 C-65.85051086 58.38258686 -62.79140857 53.35981238 -59.875 47.375 C-51.61885528 30.59893596 -38.59707492 21.77470951 -22 14 C-21.34 14 -20.68 14 -20 14 C-19.7628125 13.43667969 -19.525625 12.87335937 -19.28125 12.29296875 C-17.71350057 9.48727084 -15.79085403 7.56244592 -13.5 5.3125 C-12.7059375 4.52488281 -11.911875 3.73726562 -11.09375 2.92578125 C-7.45522873 -0.42084372 -4.87915732 -0.25679775 0 0 Z M-47 110 C-47 110.66 -47 111.32 -47 112 C-46.34 112 -45.68 112 -45 112 C-45 111.34 -45 110.68 -45 110 C-45.66 110 -46.32 110 -47 110 Z " fill="#4BD0EA" transform="translate(116,36)"/>
<path d="M0 0 C1.90234375 0.8515625 1.90234375 0.8515625 4.71484375 2.8515625 C4.05484375 4.1715625 3.39484375 5.4915625 2.71484375 6.8515625 C2.05484375 6.8515625 1.39484375 6.8515625 0.71484375 6.8515625 C0.38484375 10.1515625 0.05484375 13.4515625 -0.28515625 16.8515625 C0.37484375 16.1915625 1.03484375 15.5315625 1.71484375 14.8515625 C1.71484375 15.8415625 1.71484375 16.8315625 1.71484375 17.8515625 C2.37484375 17.8515625 3.03484375 17.8515625 3.71484375 17.8515625 C3.96234375 17.1296875 4.20984375 16.4078125 4.46484375 15.6640625 C6.21929666 11.71654345 8.05504687 8.66614376 12.01399231 6.72320557 C14.87658987 5.79936234 17.11501855 5.597939 20.1159668 5.59277344 C21.17023361 5.58646912 22.22450043 5.58016479 23.31071472 5.57366943 C24.43794449 5.5777179 25.56517426 5.58176636 26.7265625 5.5859375 C27.8911348 5.58402405 29.05570709 5.5821106 30.25556946 5.58013916 C32.71245541 5.57878001 35.16934861 5.58245759 37.6262207 5.59082031 C41.3987628 5.60155231 45.1708318 5.59090074 48.94335938 5.578125 C51.32942814 5.57944607 53.71549661 5.58200739 56.1015625 5.5859375 C57.23486496 5.58188904 58.36816742 5.57784058 59.53581238 5.57366943 C60.58062271 5.57997375 61.62543304 5.58627808 62.7019043 5.59277344 C64.08492989 5.59516022 64.08492989 5.59516022 65.49589539 5.59759521 C67.71484375 5.8515625 67.71484375 5.8515625 69.71484375 7.8515625 C68.06484375 7.8515625 66.41484375 7.8515625 64.71484375 7.8515625 C64.71484375 9.5015625 64.71484375 11.1515625 64.71484375 12.8515625 C63.06484375 12.8515625 61.41484375 12.8515625 59.71484375 12.8515625 C59.71484375 12.1915625 59.71484375 11.5315625 59.71484375 10.8515625 C59.05484375 10.8515625 58.39484375 10.8515625 57.71484375 10.8515625 C57.71484375 9.5315625 57.71484375 8.2115625 57.71484375 6.8515625 C40.38984375 7.3465625 40.38984375 7.3465625 22.71484375 7.8515625 C22.38484375 9.8315625 22.05484375 11.8115625 21.71484375 13.8515625 C22.68421875 13.8309375 23.65359375 13.8103125 24.65234375 13.7890625 C27.71484375 13.8515625 27.71484375 13.8515625 28.71484375 14.8515625 C28.78664339 16.37084288 28.79876382 17.89323732 28.77734375 19.4140625 C28.76832031 20.24035156 28.75929687 21.06664063 28.75 21.91796875 C28.73839844 22.55605469 28.72679687 23.19414063 28.71484375 23.8515625 C27.06484375 24.1815625 25.41484375 24.5115625 23.71484375 24.8515625 C23.71484375 25.8415625 23.71484375 26.8315625 23.71484375 27.8515625 C24.64296875 27.3565625 25.57109375 26.8615625 26.52734375 26.3515625 C29.71484375 24.8515625 29.71484375 24.8515625 32.71484375 24.8515625 C34.40234375 27.3515625 34.40234375 27.3515625 35.71484375 29.8515625 C34.72484375 29.8515625 33.73484375 29.8515625 32.71484375 29.8515625 C32.71484375 32.1615625 32.71484375 34.4715625 32.71484375 36.8515625 C30.71529629 36.89410606 28.71442739 36.89237033 26.71484375 36.8515625 C25.71484375 35.8515625 25.71484375 35.8515625 25.65234375 33.2890625 C25.67296875 32.4846875 25.69359375 31.6803125 25.71484375 30.8515625 C27.36484375 30.5215625 29.01484375 30.1915625 30.71484375 29.8515625 C30.71484375 29.1915625 30.71484375 28.5315625 30.71484375 27.8515625 C26.85092158 28.7216205 25.13436132 29.24031573 22.8515625 32.56640625 C22.13419922 34.16162109 22.13419922 34.16162109 21.40234375 35.7890625 C20.91121094 36.84996094 20.42007813 37.91085938 19.9140625 39.00390625 C18.6731402 41.84874374 18.6731402 41.84874374 17.71484375 44.8515625 C18.54242188 45.026875 19.37 45.2021875 20.22265625 45.3828125 C25.0526985 47.41423967 27.99037827 50.61955856 31.58984375 54.3515625 C32.27820313 55.04121094 32.9665625 55.73085937 33.67578125 56.44140625 C38.71484375 61.57045201 38.71484375 61.57045201 38.71484375 63.8515625 C39.37484375 63.8515625 40.03484375 63.8515625 40.71484375 63.8515625 C40.71484375 63.1915625 40.71484375 62.5315625 40.71484375 61.8515625 C42.18359375 60.37109375 42.18359375 60.37109375 44.21484375 58.6640625 C45.30345703 57.73787109 45.30345703 57.73787109 46.4140625 56.79296875 C47.17332031 56.15230469 47.93257813 55.51164062 48.71484375 54.8515625 C50.15524874 53.6049111 51.59288461 52.35505092 53.02734375 51.1015625 C53.66285156 50.54984375 54.29835938 49.998125 54.953125 49.4296875 C56.5998955 47.95453166 58.16860582 46.43110402 59.71484375 44.8515625 C61.38610097 45.84387147 63.05124297 46.84647036 64.71484375 47.8515625 C65.41222656 48.26148438 66.10960937 48.67140625 66.828125 49.09375 C67.55386719 49.52945313 68.27960938 49.96515625 69.02734375 50.4140625 C69.72472656 50.82785156 70.42210937 51.24164063 71.140625 51.66796875 C71.66011719 52.05855469 72.17960937 52.44914062 72.71484375 52.8515625 C72.71484375 53.5115625 72.71484375 54.1715625 72.71484375 54.8515625 C73.76285156 54.31015625 73.76285156 54.31015625 74.83203125 53.7578125 C75.74210937 53.29375 76.6521875 52.8296875 77.58984375 52.3515625 C78.49476563 51.8875 79.3996875 51.4234375 80.33203125 50.9453125 C82.71484375 49.8515625 82.71484375 49.8515625 84.71484375 49.8515625 C84.01552699 56.8574449 78.62998774 61.25466524 73.71484375 65.8515625 C70.6239638 67.93930678 67.55411351 69.8515625 63.71484375 69.8515625 C64.04484375 68.2015625 64.37484375 66.5515625 64.71484375 64.8515625 C59.86872414 67.37596701 56.38712356 70.88131705 52.58984375 74.7265625 C51.96980469 75.33886719 51.34976563 75.95117188 50.7109375 76.58203125 C47.51330258 79.79341944 44.82977475 82.79151247 42.71484375 86.8515625 C38.01825134 86.40662217 36.32045296 84.7882291 33.33984375 81.2265625 C32.17775391 79.87691406 32.17775391 79.87691406 30.9921875 78.5 C30.24066406 77.62601562 29.48914063 76.75203125 28.71484375 75.8515625 C27.46110764 74.50214007 26.19225916 73.16644401 24.90234375 71.8515625 C24.38027344 71.3153125 23.85820313 70.7790625 23.3203125 70.2265625 C21.7336757 68.75202912 21.7336757 68.75202912 19.60546875 67.81640625 C17.71484375 66.8515625 17.71484375 66.8515625 16.27734375 64.4140625 C14.89080652 61.69405164 14.89080652 61.69405164 12.21484375 60.3515625 C9.28174258 58.5917018 8.25791126 56.85648344 6.71484375 53.8515625 C7.70484375 53.1915625 8.69484375 52.5315625 9.71484375 51.8515625 C9.09996094 51.74199219 8.48507813 51.63242188 7.8515625 51.51953125 C6.63919922 51.28169922 6.63919922 51.28169922 5.40234375 51.0390625 C4.60183594 50.88824219 3.80132812 50.73742187 2.9765625 50.58203125 C0.42082399 49.75660275 -0.62114567 48.93283253 -2.28515625 46.8515625 C-2.73890625 45.8409375 -3.19265625 44.8303125 -3.66015625 43.7890625 C-5.59941239 40.28348409 -6.60020053 40.07988107 -10.28515625 38.8515625 C-12.87159594 37.00410558 -14.91319477 35.36300954 -16.78515625 32.7890625 C-18.6327145 30.4026331 -20.6746865 29.32413518 -23.28515625 27.8515625 C-25.28515625 25.8515625 -25.28515625 25.8515625 -25.72265625 23.5390625 C-25.10103639 19.7205405 -23.10686605 18.41675322 -20.28515625 15.8515625 C-19.56328125 14.9234375 -18.84140625 13.9953125 -18.09765625 13.0390625 C-17.49953125 12.3171875 -16.90140625 11.5953125 -16.28515625 10.8515625 C-15.62515625 10.8515625 -14.96515625 10.8515625 -14.28515625 10.8515625 C-13.95515625 9.8615625 -13.62515625 8.8715625 -13.28515625 7.8515625 C-4.71220316 -0.30609183 -4.71220316 -0.30609183 0 0 Z M59.71484375 7.8515625 C60.04484375 9.1715625 60.37484375 10.4915625 60.71484375 11.8515625 C61.70484375 11.8515625 62.69484375 11.8515625 63.71484375 11.8515625 C63.38484375 10.5315625 63.05484375 9.2115625 62.71484375 7.8515625 C61.72484375 7.8515625 60.73484375 7.8515625 59.71484375 7.8515625 Z M7.71484375 14.8515625 C7.71484375 16.8315625 7.71484375 18.8115625 7.71484375 20.8515625 C9.69484375 21.5115625 11.67484375 22.1715625 13.71484375 22.8515625 C14.04484375 24.5015625 14.37484375 26.1515625 14.71484375 27.8515625 C16.71439121 27.89410606 18.71526011 27.89237033 20.71484375 27.8515625 C22.01117996 26.78511135 22.01117996 26.78511135 21.77734375 24.2890625 C21.75671875 23.4846875 21.73609375 22.6803125 21.71484375 21.8515625 C23.69484375 21.8515625 25.67484375 21.8515625 27.71484375 21.8515625 C27.75738731 19.85201504 27.75565158 17.85114614 27.71484375 15.8515625 C26.60834818 14.53621462 26.60834818 14.53621462 23.83984375 14.5390625 C20.61819664 14.51516441 20.61819664 14.51516441 18.83984375 16.8515625 C18.46859375 17.5115625 18.09734375 18.1715625 17.71484375 18.8515625 C17.32296875 18.2121875 16.93109375 17.5728125 16.52734375 16.9140625 C13.9677307 14.00139937 11.2772045 13.07038213 7.71484375 14.8515625 Z " fill="#47D3EC" transform="translate(72.28515625,89.1484375)"/>
<path d="M0 0 C1.02083333 0.875 2.04166667 1.75 3.0625 2.625 C4.04089844 3.45451172 4.04089844 3.45451172 5.0390625 4.30078125 C6.20512509 5.31121398 7.35375066 6.34334623 8.4609375 7.41796875 C12.4773729 11.21126885 16.9283666 13.69780283 21.75 16.3125 C34.54703903 23.34117674 46.04073389 32.214413 51.24609375 46.39453125 C51.49488281 47.25433594 51.74367188 48.11414063 52 49 C50.02 48.505 50.02 48.505 48 48 C47.14472267 51.88762423 46.76146236 54.33739544 48.125 58.125 C50.12340825 61.18922598 52.38656835 63.45190414 55 66 C56.8720851 68.58218634 57.88825889 70.36147939 58.4375 73.5 C57.8459521 76.88027371 56.36305501 78.56744337 54 81 C53.34 81 52.68 81 52 81 C51.71125 81.639375 51.4225 82.27875 51.125 82.9375 C50 85 50 85 48 86 C46.86649466 88.01669827 46.86649466 88.01669827 46 90 C45.21625 89.525625 44.4325 89.05125 43.625 88.5625 C42.11051322 87.66101977 40.5764103 86.78820515 39 86 C37.29011268 82.46748554 36.5997189 79.11797607 36.0625 75.25 C35.34424718 70.64073979 34.30620743 66.43014807 32.73046875 62.046875 C31.66828236 59.07048105 30.84223869 56.04501682 30 53 C30.99 52.01 30.99 52.01 32 51 C36.17315511 51.26990555 38.30691078 52.76067954 41.3125 55.5625 C42.00988281 56.20316406 42.70726562 56.84382813 43.42578125 57.50390625 C43.94527344 57.99761719 44.46476562 58.49132812 45 59 C44.18174726 55.34566735 42.73565302 52.3203797 41 49 C39.68 49 38.36 49 37 49 C35.23794267 47.2080773 33.69658732 45.44599574 32.125 43.5 C23.51679957 33.46130828 12.22675607 27.74667944 -0.875 25.875 C-2.02742188 25.70742187 -3.17984375 25.53984375 -4.3671875 25.3671875 C-5.23601562 25.24601562 -6.10484375 25.12484375 -7 25 C-7.33 25.66 -7.66 26.32 -8 27 C-8.66644531 26.95359375 -9.33289063 26.9071875 -10.01953125 26.859375 C-22.53521827 26.36925019 -31.59452546 30.94025432 -41 39 C-43.51888694 41.53757998 -45.79412906 44.18871339 -48 47 C-48.804375 47.99 -49.60875 48.98 -50.4375 50 C-50.953125 50.66 -51.46875 51.32 -52 52 C-52.99 51.67 -53.98 51.34 -55 51 C-49.69947199 39.7330485 -41.77149688 32.90031039 -31 27 C-30.29359375 26.5359375 -29.5871875 26.071875 -28.859375 25.59375 C-19.18201567 19.42891369 -7.06115602 19.02941694 4 21 C18.14009958 24.24499313 27.19327154 30.48005492 37 41 C37.33 41.33 37.66 41.66 38 42 C32.91942517 33.46463429 26.12680042 29.27070145 17.41870117 24.89111328 C14.39493984 23.35722534 11.92430727 21.93739535 9.2890625 19.7578125 C6.95226943 17.59396236 6.95226943 17.59396236 3 18 C-3.33333333 18 -9.66666667 18 -16 18 C-14.1796875 14.171875 -14.1796875 14.171875 -12.5625 12.625 C-10.40212603 10.37821107 -9.30930299 7.80564927 -8 5 C-2.25 4.875 -2.25 4.875 0 6 C0 6.99 0 7.98 0 9 C0.66 9 1.32 9 2 9 C2 9.66 2 10.32 2 11 C2.66 11 3.32 11 4 11 C4 11.66 4 12.32 4 13 C4.99 13 5.98 13 7 13 C7 13.66 7 14.32 7 15 C7.66 14.67 8.32 14.34 9 14 C8.505 13.01 8.505 13.01 8 12 C7.01 11.67 6.02 11.34 5 11 C3.91698965 8.70401807 2.92203709 6.36522558 2 4 C1.3455587 2.66062372 0.68184028 1.32563798 0 0 Z M-7 6 C-7.33 6.66 -7.66 7.32 -8 8 C-4.33019796 10.91171789 -4.33019796 10.91171789 0 12 C-1.0975223 9.00675737 -1.67682892 8.15389099 -4.625 6.75 C-5.40875 6.5025 -6.1925 6.255 -7 6 Z M1 13 C0.67 13.99 0.34 14.98 0 16 C0.99 15.67 1.98 15.34 3 15 C2.34 14.34 1.68 13.68 1 13 Z " fill="#4ECEE8" transform="translate(119,39)"/>
<path d="M0 0 C7.43336076 1.06190868 11.74420604 5.42640277 16.8125 10.5625 C17.40998047 11.15224609 18.00746094 11.74199219 18.62304688 12.34960938 C23 16.74657143 23 16.74657143 23 19 C23.66 19 24.32 19 25 19 C25 18.34 25 17.68 25 17 C26.46875 15.51953125 26.46875 15.51953125 28.5 13.8125 C29.22574219 13.19503906 29.95148438 12.57757813 30.69921875 11.94140625 C31.45847656 11.30074219 32.21773437 10.66007813 33 10 C34.44040499 8.7533486 35.87804086 7.50348842 37.3125 6.25 C37.94800781 5.69828125 38.58351562 5.1465625 39.23828125 4.578125 C40.88505175 3.10296916 42.45376207 1.57954152 44 0 C45.67125722 0.99230897 47.33639922 1.99490786 49 3 C49.69738281 3.40992188 50.39476562 3.81984375 51.11328125 4.2421875 C51.83902344 4.67789063 52.56476563 5.11359375 53.3125 5.5625 C54.00988281 5.97628906 54.70726562 6.39007813 55.42578125 6.81640625 C55.94527344 7.20699219 56.46476562 7.59757813 57 8 C57 8.66 57 9.32 57 10 C58.04800781 9.45859375 58.04800781 9.45859375 59.1171875 8.90625 C60.02726562 8.4421875 60.93734375 7.978125 61.875 7.5 C62.77992188 7.0359375 63.68484375 6.571875 64.6171875 6.09375 C67 5 67 5 69 5 C68.30068324 12.0058824 62.91514399 16.40310274 58 21 C54.90912005 23.08774428 51.83926976 25 48 25 C48.33 23.35 48.66 21.7 49 20 C44.15388039 22.52440451 40.67227981 26.02975455 36.875 29.875 C36.25496094 30.48730469 35.63492188 31.09960938 34.99609375 31.73046875 C31.79845883 34.94185694 29.114931 37.93994997 27 42 C22.30340759 41.55505967 20.60560921 39.9366666 17.625 36.375 C16.46291016 35.02535156 16.46291016 35.02535156 15.27734375 33.6484375 C14.52582031 32.77445313 13.77429688 31.90046875 13 31 C11.74626389 29.65057757 10.47741541 28.31488151 9.1875 27 C8.66542969 26.46375 8.14335938 25.9275 7.60546875 25.375 C6.01883195 23.90046662 6.01883195 23.90046662 3.890625 22.96484375 C2 22 2 22 0.5625 19.5625 C-0.82403723 16.84248914 -0.82403723 16.84248914 -3.5 15.5 C-6.43310117 13.7401393 -7.45693249 12.00492094 -9 9 C-8.071875 8.443125 -7.14375 7.88625 -6.1875 7.3125 C-3.0580593 5.04212145 -1.70245949 3.40491897 0 0 Z " fill="#9D1C87" transform="translate(88,134)"/>
<path d="M0 0 C1.47583955 0.0001591 2.95168467 0.00585225 4.42749023 0.01586914 C5.20293686 0.01728409 5.97838348 0.01869904 6.77732849 0.02015686 C9.26361893 0.02577194 11.74982059 0.03832693 14.23608398 0.05102539 C15.91772331 0.05603845 17.59936405 0.06060169 19.28100586 0.06469727 C23.41189965 0.07574626 27.54272674 0.09302094 31.67358398 0.11352539 C31.67358398 1.43352539 31.67358398 2.75352539 31.67358398 4.11352539 C32.33358398 4.11352539 32.99358398 4.11352539 33.67358398 4.11352539 C33.67358398 4.77352539 33.67358398 5.43352539 33.67358398 6.11352539 C35.32358398 6.11352539 36.97358398 6.11352539 38.67358398 6.11352539 C38.67358398 4.46352539 38.67358398 2.81352539 38.67358398 1.11352539 C40.32358398 1.11352539 41.97358398 1.11352539 43.67358398 1.11352539 C43.67358398 1.77352539 43.67358398 2.43352539 43.67358398 3.11352539 C44.66358398 3.44352539 45.65358398 3.77352539 46.67358398 4.11352539 C46.67358398 5.43352539 46.67358398 6.75352539 46.67358398 8.11352539 C45.02358398 8.44352539 43.37358398 8.77352539 41.67358398 9.11352539 C41.67358398 10.76352539 41.67358398 12.41352539 41.67358398 14.11352539 C42.99358398 14.77352539 44.31358398 15.43352539 45.67358398 16.11352539 C43.67358398 17.73852539 43.67358398 17.73852539 40.67358398 19.11352539 C37.82536738 18.78184767 35.42595833 17.99988323 32.67358398 17.11352539 C32.67358398 18.43352539 32.67358398 19.75352539 32.67358398 21.11352539 C31.4612207 21.18700195 31.4612207 21.18700195 30.22436523 21.26196289 C29.15573242 21.33672852 28.08709961 21.41149414 26.98608398 21.48852539 C25.9303418 21.55813477 24.87459961 21.62774414 23.78686523 21.69946289 C20.7554858 22.10263255 18.47982167 22.95577368 15.67358398 24.11352539 C12.40874734 23.91763519 10.41076269 23.67869573 7.79858398 21.67602539 C6.67358398 20.11352539 6.67358398 20.11352539 6.67358398 18.11352539 C5.21499678 18.75878516 3.75672262 19.40475259 2.29858398 20.05102539 C1.48647461 20.41067383 0.67436523 20.77032227 -0.16235352 21.14086914 C-1.56325387 21.77051569 -2.95266886 22.42665181 -4.32641602 23.11352539 C-3.66641602 21.13352539 -3.00641602 19.15352539 -2.32641602 17.11352539 C-0.67641602 17.11352539 0.97358398 17.11352539 2.67358398 17.11352539 C2.34358398 14.14352539 2.01358398 11.17352539 1.67358398 8.11352539 C-1.29641602 7.61852539 -1.29641602 7.61852539 -4.32641602 7.11352539 C-4.36895958 5.11397793 -4.36722384 3.11310903 -4.32641602 1.11352539 C-3.32641602 0.11352539 -3.32641602 0.11352539 0 0 Z M26.67358398 10.11352539 C26.67358398 11.43352539 26.67358398 12.75352539 26.67358398 14.11352539 C27.99358398 13.78352539 29.31358398 13.45352539 30.67358398 13.11352539 C30.67358398 12.12352539 30.67358398 11.13352539 30.67358398 10.11352539 C29.35358398 10.11352539 28.03358398 10.11352539 26.67358398 10.11352539 Z " fill="#46D4EE" transform="translate(98.326416015625,95.886474609375)"/>
<path d="M0 0 C1.90234375 0.8515625 1.90234375 0.8515625 4.71484375 2.8515625 C4.05484375 4.1715625 3.39484375 5.4915625 2.71484375 6.8515625 C2.05484375 6.8515625 1.39484375 6.8515625 0.71484375 6.8515625 C0.52006636 8.47570628 0.33424917 10.10092673 0.15234375 11.7265625 C0.04792969 12.63148437 -0.05648437 13.53640625 -0.1640625 14.46875 C-0.48190477 16.86809307 -0.48190477 16.86809307 0.71484375 18.8515625 C0.05084553 20.85245 -0.61640008 22.85226021 -1.28515625 24.8515625 C-1.76821501 28.14240029 -2.15754498 31.41748944 -2.49609375 34.72460938 C-2.69474598 36.44226616 -2.98286683 38.14908529 -3.28515625 39.8515625 C-5.28515625 40.8515625 -5.28515625 40.8515625 -7.59765625 40.1640625 C-11.35847399 38.32738407 -14.31031003 36.19197605 -16.78515625 32.7890625 C-18.6327145 30.4026331 -20.6746865 29.32413518 -23.28515625 27.8515625 C-25.28515625 25.8515625 -25.28515625 25.8515625 -25.72265625 23.5390625 C-25.10103639 19.7205405 -23.10686605 18.41675322 -20.28515625 15.8515625 C-19.56328125 14.9234375 -18.84140625 13.9953125 -18.09765625 13.0390625 C-17.49953125 12.3171875 -16.90140625 11.5953125 -16.28515625 10.8515625 C-15.62515625 10.8515625 -14.96515625 10.8515625 -14.28515625 10.8515625 C-13.95515625 9.8615625 -13.62515625 8.8715625 -13.28515625 7.8515625 C-4.71220316 -0.30609183 -4.71220316 -0.30609183 0 0 Z " fill="#D44782" transform="translate(72.28515625,89.1484375)"/>
<path d="M0 0 C4.72790917 0.16359547 7.50327671 2.73933974 10.875 5.75 C14.18921262 8.62639037 17.47017337 11.43333011 21.125 13.875 C24.76117341 16.56260644 25.70351283 18.07283342 26.375 22.4375 C25.86962638 25.89088643 24.40030716 27.52909557 22 30 C21.34 30 20.68 30 20 30 C19.71125 30.639375 19.4225 31.27875 19.125 31.9375 C18 34 18 34 16 35 C14.86649466 37.01669827 14.86649466 37.01669827 14 39 C13.21625 38.525625 12.4325 38.05125 11.625 37.5625 C10.11051322 36.66101977 8.5764103 35.78820515 7 35 C5.29011268 31.46748554 4.5997189 28.11797607 4.0625 24.25 C3.34424718 19.64073979 2.30620743 15.43014807 0.73046875 11.046875 C-0.33171764 8.07048105 -1.15776131 5.04501682 -2 2 C-1.34 1.34 -0.68 0.68 0 0 Z " fill="#A01D82" transform="translate(151,90)"/>
<path d="M0 0 C12.83559369 11.58870745 12.83559369 11.58870745 13.1875 16.75 C13.0946875 17.86375 13.0946875 17.86375 13 19 C9.1079945 17.46785304 7.23839139 15.0770734 4.625 11.875 C-3.92202602 2.22472285 -15.11089997 -3.30155714 -27.875 -5.125 C-29.60363281 -5.37636719 -29.60363281 -5.37636719 -31.3671875 -5.6328125 C-32.23601562 -5.75398438 -33.10484375 -5.87515625 -34 -6 C-34.33 -5.34 -34.66 -4.68 -35 -4 C-35.66644531 -4.04640625 -36.33289063 -4.0928125 -37.01953125 -4.140625 C-49.53521827 -4.63074981 -58.59452546 -0.05974568 -68 8 C-70.51888694 10.53757998 -72.79412906 13.18871339 -75 16 C-75.804375 16.99 -76.60875 17.98 -77.4375 19 C-77.953125 19.66 -78.46875 20.32 -79 21 C-79.99 20.67 -80.98 20.34 -82 20 C-76.69947199 8.7330485 -68.77149688 1.90031039 -58 -4 C-56.94039062 -4.69609375 -56.94039062 -4.69609375 -55.859375 -5.40625 C-39.42146606 -15.87780681 -14.8770958 -11.32578906 0 0 Z " fill="#D1D9E3" transform="translate(146,70)"/>
<path d="M0 0 C2.64187854 2.5663963 5.05463679 5.06757709 7.375 7.9375 C9.78392111 10.91412863 12.54741996 13.23850749 15.546875 15.60546875 C17 17 17 17 18 20 C14.44977235 21.09782872 11.14438792 21.12921862 7.44140625 21.1328125 C5.53198242 21.13474609 5.53198242 21.13474609 3.58398438 21.13671875 C2.92358154 21.13462402 2.26317871 21.1325293 1.58276367 21.13037109 C-0.4273232 21.12502706 -2.43718574 21.13032271 -4.44726562 21.13671875 C-6.35862305 21.13478516 -6.35862305 21.13478516 -8.30859375 21.1328125 C-10.05354126 21.13112061 -10.05354126 21.13112061 -11.83374023 21.12939453 C-14.67964153 21.01309199 -17.23427351 20.65323949 -20 20 C-18.64670149 14.48778411 -16.19859059 11.58302208 -12.25 7.75 C-11.73695312 7.22148438 -11.22390625 6.69296875 -10.6953125 6.1484375 C-7.37359555 2.86010464 -4.64914275 1.1414063 0 0 Z " fill="#F7387A" transform="translate(114,66)"/>
<path d="M0 0 C0.8712149 -0.0066568 1.74242981 -0.0133136 2.64004517 -0.02017212 C4.47029532 -0.03022833 6.30058162 -0.03499134 8.13085938 -0.03466797 C10.90036553 -0.03904087 13.66827473 -0.07543419 16.4375 -0.11328125 C35.05051783 -0.23371725 35.05051783 -0.23371725 42.5390625 4.3359375 C44.8147276 6.58977292 45.99743625 8.46532311 47.5390625 11.3359375 C47.5390625 11.9959375 47.5390625 12.6559375 47.5390625 13.3359375 C44.87871236 12.34780745 42.57067546 11.35685766 40.19688416 9.78598022 C37.23973227 8.17263022 35.54027898 7.95648874 32.20141602 7.94775391 C31.16005997 7.93829742 30.11870392 7.92884094 29.04579163 7.9190979 C27.93111008 7.92517059 26.81642853 7.93124329 25.66796875 7.9375 C24.51288315 7.93462982 23.35779755 7.93175964 22.16770935 7.92880249 C19.72760528 7.92676316 17.28748481 7.93228382 14.84741211 7.94482422 C11.11860444 7.96086419 7.39088314 7.94497763 3.66210938 7.92578125 C1.28906011 7.92776399 -1.08398847 7.9316083 -3.45703125 7.9375 C-4.56968857 7.93142731 -5.68234589 7.92535461 -6.82872009 7.9190979 C-12.42253595 7.96974166 -16.6795599 8.07534293 -21.4609375 11.3359375 C-23.11728512 13.31422538 -23.11728512 13.31422538 -24.2109375 15.5234375 C-25.3828125 17.69140625 -25.3828125 17.69140625 -26.4609375 19.3359375 C-27.1209375 19.3359375 -27.7809375 19.3359375 -28.4609375 19.3359375 C-27.49289182 12.94683604 -25.56735484 7.33191214 -20.24185181 3.32363892 C-14.20687057 -0.02338317 -6.7261805 0.01834873 0 0 Z " fill="#BBEAF3" transform="translate(102.4609375,87.6640625)"/>
<path d="M0 0 C10.24077882 1.73360479 17.42002381 8.23865021 24 16 C24 16.66 24 17.32 24 18 C28.83826639 14.03074262 32.69509898 10.38576462 36 5 C37.4375 3.125 37.4375 3.125 39 2 C41.6875 1.8125 41.6875 1.8125 44 2 C42.948125 2.7734375 42.948125 2.7734375 41.875 3.5625 C37.44148508 7.3213496 33.08732166 11.09739671 32 17 C35.75151144 15.21092278 35.75151144 15.21092278 37.8125 11.8125 C37.9053125 10.9153125 37.9053125 10.9153125 38 10 C39.32 10.66 40.64 11.32 42 12 C39.90185329 14.15202209 37.79697945 16.29663616 35.6875 18.4375 C34.79514648 19.35499023 34.79514648 19.35499023 33.88476562 20.29101562 C33.30791016 20.87431641 32.73105469 21.45761719 32.13671875 22.05859375 C31.60780029 22.59798584 31.07888184 23.13737793 30.53393555 23.69311523 C29 25 29 25 26 26 C21.44610932 24.81688134 19.30824246 22.39993693 16.25 18.9375 C9.70658524 11.89768018 1.58145237 8.07442932 -7 4 C-7 3.67 -7 3.34 -7 3 C-5.35 3 -3.7 3 -2 3 C-2 3.66 -2 4.32 -2 5 C-1.01 5 -0.02 5 1 5 C1.33 3.68 1.66 2.36 2 1 C1.34 0.67 0.68 0.34 0 0 Z " fill="#4BC5DF" transform="translate(87,162)"/>
<path d="M0 0 C2.125 1.125 2.125 1.125 5 3 C5.69480469 3.41121094 6.38960937 3.82242188 7.10546875 4.24609375 C8.19794922 4.89771484 8.19794922 4.89771484 9.3125 5.5625 C10.00988281 5.97628906 10.70726562 6.39007813 11.42578125 6.81640625 C12.20501953 7.40228516 12.20501953 7.40228516 13 8 C13 8.66 13 9.32 13 10 C13.69867188 9.6390625 14.39734375 9.278125 15.1171875 8.90625 C16.02726562 8.4421875 16.93734375 7.978125 17.875 7.5 C18.77992188 7.0359375 19.68484375 6.571875 20.6171875 6.09375 C23 5 23 5 25 5 C24.30068324 12.0058824 18.91514399 16.40310274 14 21 C10.90912005 23.08774428 7.83926976 25 4 25 C4.33 23.35 4.66 21.7 5 20 C-0.26964527 22.63482263 -3.97903554 26.79943911 -8 31 C-8.33 30.01 -8.66 29.02 -9 28 C-7.62308038 25.24616077 -5.63279958 24.48516899 -3 23 C-3.20625 22.2575 -3.4125 21.515 -3.625 20.75 C-4.05165026 17.62123146 -3.76804332 16.56366281 -2 14 C-1.01 13.34 -0.02 12.68 1 12 C1.83902226 8.15448132 2.25360525 5.76081574 1 2 C0.01 2.33 -0.98 2.66 -2 3 C-2 2.34 -2 1.68 -2 1 C-1.34 0.67 -0.68 0.34 0 0 Z " fill="#9C1A87" transform="translate(132,134)"/>
<path d="M0 0 C2.92125101 -0.25889686 4.49089459 -0.35218717 6.94458008 1.34521484 C7.84793091 2.26874756 7.84793091 2.26874756 8.76953125 3.2109375 C9.43017578 3.87867188 10.09082031 4.54640625 10.77148438 5.234375 C11.44501953 5.94078125 12.11855469 6.6471875 12.8125 7.375 C13.85180664 8.42300781 13.85180664 8.42300781 14.91210938 9.4921875 C20 14.70539563 20 14.70539563 20 17 C20.66 17 21.32 17 22 17 C22 16.34 22 15.68 22 15 C23.46875 13.51953125 23.46875 13.51953125 25.5 11.8125 C27.7523513 9.90758587 29.9919604 8.00733108 32.171875 6.01953125 C32.85765625 5.39433594 33.5434375 4.76914063 34.25 4.125 C34.87390625 3.55007812 35.4978125 2.97515625 36.140625 2.3828125 C38.11399078 0.91522534 39.59643056 0.41477526 42 0 C42.495 1.98 42.495 1.98 43 4 C42.01 4.33 41.02 4.66 40 5 C39.29018168 6.31087 38.62727004 7.6476855 38 9 C36.04773354 11.37520422 33.85822047 13.51196106 31.6875 15.6875 C31.11837891 16.28111328 30.54925781 16.87472656 29.96289062 17.48632812 C27.50073972 19.96543988 25.59318411 21.75855756 22.33203125 23.0859375 C19.23667992 22.97187095 18.22822985 22.05341988 16 19.9375 C15.31164062 19.28910156 14.62328125 18.64070313 13.9140625 17.97265625 C12.31225858 16.32181751 10.82075456 14.66120644 9.375 12.875 C6.41456093 9.2913106 3.20584698 6.10292349 -1 4 C-0.67 2.68 -0.34 1.36 0 0 Z " fill="#E4397D" transform="translate(91,136)"/>
<path d="M0 0 C4.50062712 1.50020904 6.72792365 5.06507913 9 9 C13 17.66019417 13 17.66019417 13 21 C13.72058594 20.61714844 14.44117187 20.23429687 15.18359375 19.83984375 C18 19 18 19 20.53515625 19.94140625 C25.17528669 22.91768775 28.73364015 25.4773479 32 30 C32.680625 30.33 33.36125 30.66 34.0625 31 C36.81310827 32.41966878 37.66496079 34.26316962 39 37 C39 37.99 39 38.98 39 40 C37.28515625 40.67578125 37.28515625 40.67578125 35 41 C32.74609375 39.85546875 32.74609375 39.85546875 30.4375 38.1875 C29.67308594 37.64480469 28.90867187 37.10210937 28.12109375 36.54296875 C27.42113281 36.03378906 26.72117187 35.52460938 26 35 C25.01 34.34 24.02 33.68 23 33 C22.67 33.66 22.34 34.32 22 35 C16.35729098 30.86307849 13.40922533 26.83662833 10.6875 20.4375 C10.18766602 19.3247168 10.18766602 19.3247168 9.67773438 18.18945312 C8.35342079 15.22098176 7.09457491 12.24734977 5.93359375 9.2109375 C4.97502322 6.94084996 3.84430096 5.15945655 2.375 3.1875 C1.59125 2.135625 0.8075 1.08375 0 0 Z M17 27 C17 27.66 17 28.32 17 29 C17.66 29 18.32 29 19 29 C19 28.34 19 27.68 19 27 C18.34 27 17.68 27 17 27 Z " fill="#4FBBDA" transform="translate(52,119)"/>
<path d="M0 0 C1.67542976 0.28604898 3.34385343 0.61781233 5 1 C5 2.65 5 4.3 5 6 C4.34 6 3.68 6 3 6 C3.12568359 6.97839844 3.12568359 6.97839844 3.25390625 7.9765625 C3.82554104 12.88249144 4.15311982 17.13127185 3 22 C2.67 21.01 2.34 20.02 2 19 C-4.6 19.33 -11.2 19.66 -18 20 C-16.62861563 14.51446252 -13.58989099 12.26468602 -9.25 8.8125 C-6.92512612 7.19690923 -6.92512612 7.19690923 -6 5 C-5.01 5 -4.02 5 -3 5 C-2.690625 4.360625 -2.38125 3.72125 -2.0625 3.0625 C-1 1 -1 1 0 0 Z " fill="#F83781" transform="translate(66,94)"/>
<path d="M0 0 C4.34884305 0.26670928 6.95012669 2.0999517 10.3125 4.75 C11.19550781 5.42546875 12.07851562 6.1009375 12.98828125 6.796875 C15 9 15 9 15.29296875 11.765625 C15.19628906 12.50296875 15.09960938 13.2403125 15 14 C15.598125 14.268125 16.19625 14.53625 16.8125 14.8125 C19.01819033 16.00987475 20.43583187 17.04478984 22 19 C22 19.99 22 20.98 22 22 C20.083412 22.02712153 18.1667127 22.04645097 16.25 22.0625 C14.64898437 22.07990234 14.64898437 22.07990234 13.015625 22.09765625 C8.00787722 21.93548825 8.00787722 21.93548825 6 21 C4.953125 18.8203125 4.953125 18.8203125 4.25 16.125 C4.00765625 15.24070312 3.7653125 14.35640625 3.515625 13.4453125 C3 11 3 11 3 8 C1.68 7.67 0.36 7.34 -1 7 C-1.625 4.625 -1.625 4.625 -2 2 C-1.34 1.34 -0.68 0.68 0 0 Z " fill="#F2387F" transform="translate(151,90)"/>
<path d="M0 0 C1.02083333 0.875 2.04166667 1.75 3.0625 2.625 C3.70574219 3.17285156 4.34898438 3.72070312 5.01171875 4.28515625 C6.25782967 5.35989631 7.4918111 6.44904492 8.70703125 7.55859375 C13.08937861 11.50989055 17.75655156 14.3128813 23 17 C20 18 20 18 18 18 C17.505 17.01 17.505 17.01 17 16 C15.00045254 15.95745644 12.99958364 15.95919217 11 16 C10.67 16.33 10.34 16.66 10 17 C8 17 6 17 4 17 C3.67 17.33 3.34 17.66 3 18 C1.58429877 18.08651611 0.164405 18.10704904 -1.25390625 18.09765625 C-2.10791016 18.09443359 -2.96191406 18.09121094 -3.84179688 18.08789062 C-4.73962891 18.07951172 -5.63746094 18.07113281 -6.5625 18.0625 C-7.46419922 18.05798828 -8.36589844 18.05347656 -9.29492188 18.04882812 C-11.53001314 18.03700225 -13.76497437 18.0205222 -16 18 C-14.1796875 14.171875 -14.1796875 14.171875 -12.5625 12.625 C-10.40212603 10.37821107 -9.30930299 7.80564927 -8 5 C-2.25 4.875 -2.25 4.875 0 6 C0 6.99 0 7.98 0 9 C0.66 9 1.32 9 2 9 C2 9.66 2 10.32 2 11 C2.66 11 3.32 11 4 11 C4 11.66 4 12.32 4 13 C4.99 13 5.98 13 7 13 C7 13.66 7 14.32 7 15 C7.66 14.67 8.32 14.34 9 14 C8.67 13.34 8.34 12.68 8 12 C7.01 11.67 6.02 11.34 5 11 C3.91698965 8.70401807 2.92203709 6.36522558 2 4 C1.3455587 2.66062372 0.68184028 1.32563798 0 0 Z M-7 6 C-7.33 6.66 -7.66 7.32 -8 8 C-4.33019796 10.91171789 -4.33019796 10.91171789 0 12 C-1.0975223 9.00675737 -1.67682892 8.15389099 -4.625 6.75 C-5.40875 6.5025 -6.1925 6.255 -7 6 Z M1 13 C0.67 13.99 0.34 14.98 0 16 C0.99 15.67 1.98 15.34 3 15 C2.34 14.34 1.68 13.68 1 13 Z " fill="#50CDE6" transform="translate(119,39)"/>
<path d="M0 0 C0 1.98 0 3.96 0 6 C0.969375 5.979375 1.93875 5.95875 2.9375 5.9375 C6 6 6 6 7 7 C7.07179964 8.51928038 7.08392007 10.04167482 7.0625 11.5625 C7.05347656 12.38878906 7.04445313 13.21507813 7.03515625 14.06640625 C7.02355469 14.70449219 7.01195313 15.34257813 7 16 C5.35 16.33 3.7 16.66 2 17 C2 17.99 2 18.98 2 20 C2.928125 19.505 3.85625 19.01 4.8125 18.5 C8 17 8 17 11 17 C12.6875 19.5 12.6875 19.5 14 22 C13.01 22 12.02 22 11 22 C11 24.31 11 26.62 11 29 C9.00045254 29.04254356 6.99958364 29.04080783 5 29 C4 28 4 28 3.9375 25.4375 C3.958125 24.633125 3.97875 23.82875 4 23 C5.65 22.67 7.3 22.34 9 22 C9 21.34 9 20.68 9 20 C5.13607783 20.870058 3.41951757 21.38875323 1.13671875 24.71484375 C0.65847656 25.77832031 0.18023437 26.84179688 -0.3125 27.9375 C-0.80363281 28.99839844 -1.29476562 30.05929688 -1.80078125 31.15234375 C-3.04170355 33.99718124 -3.04170355 33.99718124 -4 37 C-4.66 37 -5.32 37 -6 37 C-4.22666667 31.42666667 -4.22666667 31.42666667 -2.9375 29 C-1.71479283 26.39155804 -1.3872708 23.83998588 -1 21 C-3.31 21.33 -5.62 21.66 -8 22 C-8 19.69 -8 17.38 -8 15 C-7.67 15 -7.34 15 -7 15 C-7 16.65 -7 18.3 -7 20 C-5.02 19.67 -3.04 19.34 -1 19 C-0.67 17.35 -0.34 15.7 0 14 C1.98 14 3.96 14 6 14 C5.67 12.02 5.34 10.04 5 8 C3.02 8 1.04 8 -1 8 C-1.66 9.32 -2.32 10.64 -3 12 C-3.556875 11.38125 -4.11375 10.7625 -4.6875 10.125 C-7.06645178 7.93893621 -8.96357096 7.01214301 -12 6 C-10.68 5.67 -9.36 5.34 -8 5 C-7.67 3.35 -7.34 1.7 -7 0 C-3.86650268 -1.04449911 -3.01031744 -0.93423645 0 0 Z " fill="#59BEDA" transform="translate(94,97)"/>
<path d="M0 0 C4.39486496 2.92990998 6.46889705 6.91984678 7.75 11.9375 C7.87375 12.9584375 7.87375 12.9584375 8 14 C10.475 14.495 10.475 14.495 13 15 C12.67 15.99 12.34 16.98 12 18 C11.34 18 10.68 18 10 18 C10 17.34 10 16.68 10 16 C9.01 16 8.02 16 7 16 C7 15.34 7 14.68 7 14 C6.34 14 5.68 14 5 14 C5 13.34 5 12.68 5 12 C4.34 12 3.68 12 3 12 C3 11.01 3 10.02 3 9 C-1.47545731 8.34902439 -3.75782929 8.12722674 -7.53515625 10.78125 C-9.76733173 12.79056168 -11.9155507 14.83834888 -14 17 C-16.5 15.6875 -16.5 15.6875 -19 14 C-19 11 -19 11 -16.8828125 8.5546875 C-15.97273438 7.67039062 -15.06265625 6.78609375 -14.125 5.875 C-13.22007813 4.98554687 -12.31515625 4.09609375 -11.3828125 3.1796875 C-7.54638512 -0.32970017 -5.15855026 -0.27150265 0 0 Z " fill="#49D0E9" transform="translate(116,36)"/>
<path d="M0 0 C14.32003668 3.02669203 26.13586999 11.32921699 34.1875 23.5625 C34.375 26.3125 34.375 26.3125 34.1875 28.5625 C30.2954945 27.03035304 28.42589139 24.6395734 25.8125 21.4375 C17.27101932 11.79348398 6.01301858 6.10156223 -6.8125 4.5625 C-7.1425 3.5725 -7.4725 2.5825 -7.8125 1.5625 C-4.3921682 -0.7177212 -3.87039058 -0.65570335 0 0 Z " fill="#CED7E2" transform="translate(124.8125,60.4375)"/>
<path d="M0 0 C1.21157021 -0.00956978 1.21157021 -0.00956978 2.44761658 -0.01933289 C3.31640945 -0.02044571 4.18520233 -0.02155853 5.08032227 -0.02270508 C5.97662857 -0.02603348 6.87293488 -0.02936188 7.79640198 -0.03279114 C9.69189948 -0.03785322 11.5874059 -0.04019968 13.48291016 -0.04003906 C16.38206666 -0.04222527 19.28084248 -0.06038775 22.17993164 -0.0793457 C24.02172721 -0.08227982 25.8635246 -0.08426449 27.70532227 -0.08520508 C28.57209091 -0.09239059 29.43885956 -0.09957611 30.33189392 -0.10697937 C31.14275955 -0.10390274 31.95362518 -0.10082611 32.7890625 -0.09765625 C33.49949203 -0.09908127 34.20992157 -0.10050629 34.94187927 -0.10197449 C37.28649802 0.1853725 38.91589651 0.98834171 40.95922852 2.14526367 C40.95922852 3.13526367 40.95922852 4.12526367 40.95922852 5.14526367 C25.77922852 5.14526367 10.59922852 5.14526367 -5.04077148 5.14526367 C-5.70077148 3.82526367 -6.36077148 2.50526367 -7.04077148 1.14526367 C-4.34358048 0.2462 -2.7691107 0.01487428 0 0 Z " fill="#D9E7EA" transform="translate(97.040771484375,87.854736328125)"/>
<path d="M0 0 C6.30659171 1.23055448 9.5116625 4.88263447 13 10 C14.19537937 12.47698282 15.16914529 14.94835255 16.08984375 17.5390625 C17.21790136 20.58917534 18.69382778 23.36961176 20.265625 26.2109375 C21 28 21 28 21 32 C18.75 31.9375 18.75 31.9375 16 31 C14.42793201 28.64189802 13.20442415 26.52825242 12 24 C11.46375 22.96875 10.9275 21.9375 10.375 20.875 C9 18 9 18 8.125 15.4375 C6.67109642 12.28737559 4.46715233 10.40222727 2 8 C2 7.34 2 6.68 2 6 C1.01 5.67 0.02 5.34 -1 5 C-0.67 3.35 -0.34 1.7 0 0 Z " fill="#47D4ED" transform="translate(46,117)"/>
<path d="M0 0 C2.91312716 1.69149319 3.87594842 2.61957514 4.9375 5.875 C5.015998 9.79989999 4.46245429 10.9405871 2 14 C0.74291511 15.09925705 -0.52963292 16.1809441 -1.8125 17.25 C-5.62715985 20.4464461 -8.17240897 23.86080897 -10.7734375 28.08203125 C-12 30 -12 30 -14 32 C-14.33 30.35 -14.66 28.7 -15 27 C-14.34 27 -13.68 27 -13 27 C-14.95216435 25.04783565 -16.53199953 24.15173355 -19 23 C-17.4371028 18.78017757 -14.41133255 16.78476126 -11 14 C-8.77473765 11.62638683 -8.05960092 10.62580971 -7.75 7.375 C-7.86101364 4.98536986 -7.86101364 4.98536986 -9 3 C-7.68 3.33 -6.36 3.66 -5 4 C-4.875 6.875 -4.875 6.875 -5 10 C-5.66 10.66 -6.32 11.32 -7 12 C-7 12.99 -7 13.98 -7 15 C-3.79677422 14.2983557 -3.79677422 14.2983557 -2.5 11.4375 C-2.005 10.633125 -1.51 9.82875 -1 9 C-0.01 9 0.98 9 2 9 C2.33 7.35 2.66 5.7 3 4 C2.34 4 1.68 4 1 4 C0.67 2.68 0.34 1.36 0 0 Z " fill="#4FCAE4" transform="translate(184,105)"/>
<path d="M0 0 C1.05426682 -0.00630432 2.10853363 -0.01260864 3.19474792 -0.019104 C4.32197769 -0.01505554 5.44920746 -0.01100708 6.6105957 -0.00683594 C7.775168 -0.00874939 8.9397403 -0.01066284 10.13960266 -0.01263428 C12.59648861 -0.01399343 15.05338181 -0.01031585 17.51025391 -0.00195312 C21.282796 0.00877888 25.054865 -0.0018727 28.82739258 -0.01464844 C31.21346134 -0.01332736 33.59952981 -0.01076605 35.9855957 -0.00683594 C37.11889816 -0.0108844 38.25220062 -0.01493286 39.41984558 -0.019104 C40.46465591 -0.01279968 41.50946625 -0.00649536 42.5859375 0 C43.96896309 0.00238678 43.96896309 0.00238678 45.37992859 0.00482178 C47.59887695 0.25878906 47.59887695 0.25878906 49.59887695 2.25878906 C47.94887695 2.25878906 46.29887695 2.25878906 44.59887695 2.25878906 C44.59887695 3.90878906 44.59887695 5.55878906 44.59887695 7.25878906 C42.94887695 7.25878906 41.29887695 7.25878906 39.59887695 7.25878906 C39.59887695 6.59878906 39.59887695 5.93878906 39.59887695 5.25878906 C38.93887695 5.25878906 38.27887695 5.25878906 37.59887695 5.25878906 C37.59887695 3.93878906 37.59887695 2.61878906 37.59887695 1.25878906 C23.40887695 1.58878906 9.21887695 1.91878906 -5.40112305 2.25878906 C-5.73112305 3.90878906 -6.06112305 5.55878906 -6.40112305 7.25878906 C-7.72112305 7.25878906 -9.04112305 7.25878906 -10.40112305 7.25878906 C-10.40112305 7.91878906 -10.40112305 8.57878906 -10.40112305 9.25878906 C-11.06112305 9.25878906 -11.72112305 9.25878906 -12.40112305 9.25878906 C-12.07112305 11.23878906 -11.74112305 13.21878906 -11.40112305 15.25878906 C-9.75112305 15.58878906 -8.10112305 15.91878906 -6.40112305 16.25878906 C-6.73112305 16.91878906 -7.06112305 17.57878906 -7.40112305 18.25878906 C-11.35933163 17.69333069 -14.06702835 16.44976558 -17.40112305 14.25878906 C-17.66924805 15.18691406 -17.93737305 16.11503906 -18.21362305 17.07128906 C-19.31260676 20.02119272 -20.02530865 21.31494092 -22.40112305 23.25878906 C-21.68659717 18.49528322 -20.60577461 13.9167751 -19.40112305 9.25878906 C-19.07112305 10.24878906 -18.74112305 11.23878906 -18.40112305 12.25878906 C-17.74112305 12.25878906 -17.08112305 12.25878906 -16.40112305 12.25878906 C-16.15362305 11.53691406 -15.90612305 10.81503906 -15.65112305 10.07128906 C-13.89667014 6.12377001 -12.06091993 3.07337032 -8.10197449 1.13043213 C-5.23937693 0.2065889 -3.00094824 0.00516557 0 0 Z M39.59887695 2.25878906 C39.92887695 3.57878906 40.25887695 4.89878906 40.59887695 6.25878906 C41.58887695 6.25878906 42.57887695 6.25878906 43.59887695 6.25878906 C43.26887695 4.93878906 42.93887695 3.61878906 42.59887695 2.25878906 C41.60887695 2.25878906 40.61887695 2.25878906 39.59887695 2.25878906 Z " fill="#5ECCDD" transform="translate(92.401123046875,94.7412109375)"/>
<path d="M0 0 C1 3 1 3 0.25 5.625 C-1 8 -1 8 -4 9 C-4.91276138 12.55957018 -4.91276138 12.55957018 -4.375 16.125 C-4.25125 16.74375 -4.1275 17.3625 -4 18 C-5.25 19.75 -5.25 19.75 -7 21 C-7.99 21 -8.98 21 -10 21 C-10.33 22.65 -10.66 24.3 -11 26 C-11.99 25.67 -12.98 25.34 -14 25 C-14 23.68 -14 22.36 -14 21 C-14.66386719 21.02320313 -15.32773438 21.04640625 -16.01171875 21.0703125 C-24.78207381 21.24956063 -24.78207381 21.24956063 -29 19 C-28.01 17.515 -28.01 17.515 -27 16 C-26.1646875 16.7734375 -26.1646875 16.7734375 -25.3125 17.5625 C-23.14194672 19.19063723 -23.14194672 19.19063723 -20.796875 19.015625 C-16.53235225 17.46705529 -14.01652251 14.43630954 -10.9375 11.1875 C-10.32583984 10.55779297 -9.71417969 9.92808594 -9.08398438 9.27929688 C-7.90594738 8.06560038 -6.73175719 6.84815461 -5.56201172 5.62646484 C-3.73471706 3.72377072 -1.87466688 1.85596696 0 0 Z " fill="#A1188B" transform="translate(134,139)"/>
<path d="M0 0 C1.98 0 3.96 0 6 0 C6.33 1.65 6.66 3.3 7 5 C6.360625 5.268125 5.72125 5.53625 5.0625 5.8125 C2.66868314 6.88667752 2.66868314 6.88667752 2 10 C2.66 10 3.32 10 4 10 C4.13535156 10.73605469 4.27070313 11.47210938 4.41015625 12.23046875 C5.89065407 19.21325463 5.89065407 19.21325463 10.6875 24.1875 C11.780625 24.785625 12.87375 25.38375 14 26 C11 27 11 27 8.01171875 25.57421875 C4.20542745 22.32085174 3.24699774 19.49021003 1.8125 14.8125 C0.96492096 12.14367674 0.05024607 9.60355119 -1 7 C-1.99 6.67 -2.98 6.34 -4 6 C-3.979375 7.134375 -3.95875 8.26875 -3.9375 9.4375 C-4 13 -4 13 -5 14 C-7.5 14.125 -7.5 14.125 -10 14 C-11 13 -11 13 -11.0625 9.9375 C-11.0315625 8.4834375 -11.0315625 8.4834375 -11 7 C-12.0828125 7.495 -12.0828125 7.495 -13.1875 8 C-16.07255039 9.02579569 -17.97254276 9.40911584 -21 9 C-21.66 8.01 -22.32 7.02 -23 6 C-22.113125 6.04125 -21.22625 6.0825 -20.3125 6.125 C-17.08748363 6.20344963 -17.08748363 6.20344963 -14.6875 5 C-11.52258327 3.82235657 -9.05262661 3.80104117 -5.6875 3.875 C-4.61886719 3.89304687 -3.55023438 3.91109375 -2.44921875 3.9296875 C-1.64097656 3.95289062 -0.83273438 3.97609375 0 4 C0 2.68 0 1.36 0 0 Z M1 1 C1 2.32 1 3.64 1 5 C2.65 4.67 4.3 4.34 6 4 C5.67 3.01 5.34 2.02 5 1 C3.68 1 2.36 1 1 1 Z " fill="#53C5DC" transform="translate(131,113)"/>
<path d="M0 0 C-0.69931676 7.0058824 -6.08485601 11.40310274 -11 16 C-14.09087995 18.08774428 -17.16073024 20 -21 20 C-20.67 17.69 -20.34 15.38 -20 13 C-19.01 13 -18.02 13 -17 13 C-16.77183594 12.25234375 -16.54367188 11.5046875 -16.30859375 10.734375 C-14.72385663 7.42298401 -13.10021522 6.26622214 -10.0625 4.25 C-9.18722656 3.65703125 -8.31195313 3.0640625 -7.41015625 2.453125 C-4.90647865 0.94361436 -2.95567539 0 0 0 Z " fill="#55B0CF" transform="translate(157,139)"/>
<path d="M0 0 C0.99 0.33 1.98 0.66 3 1 C4.37589758 5.26358386 5.10355575 9.60315439 6 14 C11.28 14.33 16.56 14.66 22 15 C19.11091314 10.14659219 19.11091314 10.14659219 15 7 C15.33 5.68 15.66 4.36 16 3 C17.2989839 3.90626784 18.58893167 4.82549537 19.875 5.75 C20.59429687 6.26046875 21.31359375 6.7709375 22.0546875 7.296875 C24.8085553 9.70789179 25.82313824 11.85039858 26.375 15.4375 C25.86962638 18.89088643 24.40030716 20.52909557 22 23 C21.34 23 20.68 23 20 23 C19.71125 23.639375 19.4225 24.27875 19.125 24.9375 C18 27 18 27 16 28 C14.86649466 30.01669827 14.86649466 30.01669827 14 32 C12.35 30.68 10.7 29.36 9 28 C10.485 27.2265625 10.485 27.2265625 12 26.4375 C16.42667066 23.90280105 20.59288466 20.81419925 24 17 C24 16.01 24 15.02 24 14 C23.67 14.99 23.34 15.98 23 17 C16.73 16.67 10.46 16.34 4 16 C3.34 13.73125 2.68 11.4625 2 9.125 C1.68675781 8.05596436 1.68675781 8.05596436 1.3671875 6.96533203 C0 2.22222222 0 2.22222222 0 0 Z " fill="#E53B8C" transform="translate(151,97)"/>
<path d="M0 0 C2.5625 2.25 2.5625 2.25 5 5 C5.598125 5.53625 6.19625 6.0725 6.8125 6.625 C8 8 8 8 8 11 C1.4 11 -5.2 11 -12 11 C-10.98207435 6.92829741 -10.69377501 6.31665627 -7.6875 3.8125 C-6.79611328 3.04873047 -6.79611328 3.04873047 -5.88671875 2.26953125 C-3.85186329 0.90032209 -2.44360311 0.23248855 0 0 Z " fill="#E89F46" transform="translate(114,66)"/>
<path d="M0 0 C5.07830409 2.25702404 8.86074744 5.43381446 12 10 C13.59340618 12.16703241 15.09488452 14.09488452 17 16 C16.58525633 10.71201818 15.64775386 7.88309282 12 4 C12.33 3.34 12.66 2.68 13 2 C20.99098519 11.85189955 20.99098519 11.85189955 23 17 C22.67 17.66 22.34 18.32 22 19 C21.01 18.67 20.02 18.34 19 18 C18.11190028 22.03681692 17.77279073 24.39789542 19.25 28.3125 C20.88317124 31.20708249 20.88317124 31.20708249 24 33 C23.67 33.66 23.34 34.32 23 35 C18.81399796 32.06195427 16.84419162 29.36431695 14.6875 24.75 C14.17574219 23.67234375 13.66398438 22.5946875 13.13671875 21.484375 C12.76160156 20.66453125 12.38648438 19.8446875 12 19 C11.67 19 11.34 19 11 19 C10.7525 17.96875 10.505 16.9375 10.25 15.875 C8.43602885 9.57049886 4.19172103 4.8903412 0 0 Z " fill="#57C3DC" transform="translate(148,69)"/>
<path d="M0 0 C3.125 -0.1875 3.125 -0.1875 6 0 C5.29875 0.515625 4.5975 1.03125 3.875 1.5625 C-0.55851492 5.3213496 -4.91267834 9.09739671 -6 15 C-2.24848856 13.21092278 -2.24848856 13.21092278 -0.1875 9.8125 C-0.0946875 8.9153125 -0.0946875 8.9153125 0 8 C1.32 8.66 2.64 9.32 4 10 C1.90185329 12.15202209 -0.20302055 14.29663616 -2.3125 16.4375 C-3.20485352 17.35499023 -3.20485352 17.35499023 -4.11523438 18.29101562 C-4.69208984 18.87431641 -5.26894531 19.45761719 -5.86328125 20.05859375 C-6.39219971 20.59798584 -6.92111816 21.13737793 -7.46606445 21.69311523 C-9 23 -9 23 -12 24 C-14.625 23.1875 -14.625 23.1875 -17 22 C-17.33 21.34 -17.66 20.68 -18 20 C-17.48050781 19.55269531 -16.96101563 19.10539062 -16.42578125 18.64453125 C-8.23946189 11.66687986 -8.23946189 11.66687986 -2 3 C-1.34 2.01 -0.68 1.02 0 0 Z " fill="#4CCAE3" transform="translate(125,164)"/>
<path d="M0 0 C5.94 0 11.88 0 18 0 C17.37980769 8.55865385 17.37980769 8.55865385 15.45703125 10.79296875 C14.97621094 11.19128906 14.49539062 11.58960937 14 12 C10.84717276 10.57910701 8.46222036 8.84968149 5.875 6.5625 C5.19179688 5.96566406 4.50859375 5.36882812 3.8046875 4.75390625 C2 3 2 3 0 0 Z " fill="#AE1679" transform="translate(50,113)"/>
<path d="M0 0 C0.66 0.33 1.32 0.66 2 1 C-2.25668555 6.44700492 -5.4634945 9.70011843 -12 12 C-13.67419438 12.9873454 -15.34051852 13.98812105 -17 15 C-19.64917703 16.36923756 -22.32092005 17.69037531 -25 19 C-24.65625 17.06640625 -24.65625 17.06640625 -24 15 C-22.34795544 14.29788106 -20.68076231 13.63028587 -19 13 C-18.67 12.01 -18.34 11.02 -18 10 C-20.31 10.66 -22.62 11.32 -25 12 C-24 9 -24 9 -21.234375 7.2890625 C-20.08453125 6.73992188 -18.9346875 6.19078125 -17.75 5.625 C-16.61046875 5.06039062 -15.4709375 4.49578125 -14.296875 3.9140625 C-11 3 -11 3 -8.078125 4.3359375 C-7.39234375 4.88507812 -6.7065625 5.43421875 -6 6 C-4.02 4.02 -2.04 2.04 0 0 Z " fill="#51C9E2" transform="translate(108,46)"/>
<path d="M0 0 C0.66 0.33 1.32 0.66 2 1 C3.4465242 1.15067214 4.8987934 1.24861036 6.3515625 1.31640625 C7.62773438 1.37924805 7.62773438 1.37924805 8.9296875 1.44335938 C9.81914063 1.48267578 10.70859375 1.52199219 11.625 1.5625 C12.97078125 1.62727539 12.97078125 1.62727539 14.34375 1.69335938 C16.56234283 1.79956861 18.7810488 1.90161194 21 2 C21 2.33 21 2.66 21 3 C19.92621094 3.04898438 18.85242188 3.09796875 17.74609375 3.1484375 C16.30987358 3.22353398 14.87367681 3.29907876 13.4375 3.375 C12.73302734 3.4059375 12.02855469 3.436875 11.30273438 3.46875 C6.63480133 3.72688455 2.4242543 4.35973422 -2 6 C-2.99 7.485 -2.99 7.485 -4 9 C-4.33 9.33 -4.66 9.66 -5 10 C5.89 10 16.78 10 28 10 C27.505 8.02 27.505 8.02 27 6 C28.32 7.32 29.64 8.64 31 10 C27.45281418 12.1986779 24.56713651 12.24505539 20.44140625 12.23046875 C19.16845703 12.22853516 17.89550781 12.22660156 16.58398438 12.22460938 C15.92358154 12.21840576 15.26317871 12.21220215 14.58276367 12.20581055 C12.57262428 12.18759176 10.56294764 12.18530086 8.55273438 12.18554688 C-2.16553749 12.13675353 -2.16553749 12.13675353 -7 11 C-5.72278474 6.00724943 -3.82669043 3.42388092 0 0 Z " fill="#C8698F" transform="translate(101,75)"/>
<path d="M0 0 C0.33 1.32 0.66 2.64 1 4 C0.01 4.33 -0.98 4.66 -2 5 C-2.70981832 6.31087 -3.37272996 7.6476855 -4 9 C-5.95226646 11.37520422 -8.14177953 13.51196106 -10.3125 15.6875 C-11.16618164 16.57791992 -11.16618164 16.57791992 -12.03710938 17.48632812 C-14.53651386 20.0029501 -16.37627741 21.76710787 -19.73046875 23.01953125 C-22 23 -22 23 -25 21 C-25 20.34 -25 19.68 -25 19 C-22.69 19.66 -20.38 20.32 -18 21 C-18.17789063 19.95005859 -18.17789063 19.95005859 -18.359375 18.87890625 C-17.83450448 14.67423701 -15.22350203 12.6862606 -12.25 9.9375 C-11.71117188 9.42123047 -11.17234375 8.90496094 -10.6171875 8.37304688 C-9.56653661 7.36724084 -8.51005385 6.36748416 -7.44726562 5.37451172 C-6.17254389 4.16387013 -4.94887954 2.89994807 -3.734375 1.62890625 C-2 0 -2 0 0 0 Z " fill="#F13785" transform="translate(133,136)"/>
<path d="M0 0 C-0.66 0.66 -1.32 1.32 -2 2 C-2.4199362 5.19151509 -2.26924708 6.58491075 -0.5 9.3125 C-0.005 9.869375 0.49 10.42625 1 11 C0.01 11.495 0.01 11.495 -1 12 C-1.33 11.34 -1.66 10.68 -2 10 C-2.66 10 -3.32 10 -4 10 C-4 11.32 -4 12.64 -4 14 C-2.5512831 15.21823921 -1.09604317 16.43050936 0.40625 17.58203125 C4.34910166 21.09000957 6.11981284 26.18202041 8 31 C8.65679652 32.33822291 9.32440665 33.67116749 10 35 C11.49699548 37.94930452 12.83731796 40.89951456 14 44 C8.85283094 39.71870985 6.38261835 33.4769348 3.41796875 27.6171875 C0.1195321 21.35861539 -3.73893714 16.72333909 -9 12 C-8.67 11.113125 -8.34 10.22625 -8 9.3125 C-7.08777857 6.29076653 -6.81669042 4.11626294 -7 1 C-3.375 -1.125 -3.375 -1.125 0 0 Z " fill="#54CBE2" transform="translate(50,108)"/>
<path d="M0 0 C2.97 1.65 5.94 3.3 9 5 C9 6.32 9 7.64 9 9 C9.99 9 10.98 9 12 9 C12 9.66 12 10.32 12 11 C5.73 11 -0.54 11 -7 11 C-5.30894219 7.61788438 -4.47221474 6.47221474 -2 4 C-1.34 2.68 -0.68 1.36 0 0 Z " fill="#BB4487" transform="translate(110,46)"/>
<path d="M0 0 C0.99 0.33 1.98 0.66 3 1 C3.84375 2.75 3.84375 2.75 4.5 5 C4.86544922 6.21816406 4.86544922 6.21816406 5.23828125 7.4609375 C5.61533203 8.71777344 5.61533203 8.71777344 6 10 C6.56103327 11.54220104 7.12348447 13.08388714 7.6875 14.625 C9.02648961 18.5931515 9.26593033 21.83375822 9 26 C8.34 25.67 7.68 25.34 7 25 C6.53193355 22.66255706 6.17330206 20.30260921 5.875 17.9375 C5.70742187 16.64714844 5.53984375 15.35679688 5.3671875 14.02734375 C5.24601563 13.02832031 5.12484375 12.02929688 5 11 C4.01 10.67 3.02 10.34 2 10 C2 9.34 2 8.68 2 8 C1.01 8 0.02 8 -1 8 C-0.34 8.66 0.32 9.32 1 10 C0.625 13.125 0.625 13.125 0 16 C-2.3260857 16.38063221 -4.66055264 16.71269945 -7 17 C-8 16 -8 16 -8.125 13.5 C-8 11 -8 11 -7 10 C-5.33382885 9.95936168 -3.66611905 9.957279 -2 10 C-2.34786708 8.02463255 -2.34786708 8.02463255 -3 6 C-3.66 5.67 -4.32 5.34 -5 5 C-5 4.34 -5 3.68 -5 3 C-2.0280615 4.12451727 0.33440687 5.22293791 3 7 C2.505 6.21625 2.01 5.4325 1.5 4.625 C0 2 0 2 0 0 Z M-6 11 C-6.33 12.32 -6.66 13.64 -7 15 C-5.68 15.33 -4.36 15.66 -3 16 C-2.67 14.68 -2.34 13.36 -2 12 C-3.32 11.67 -4.64 11.34 -6 11 Z " fill="#66B9D1" transform="translate(147,94)"/>
<path d="M0 0 C1.33333333 1.33333333 2.66666667 2.66666667 4 4 C4 3.34 4 2.68 4 2 C4.66 2 5.32 2 6 2 C6 2.66 6 3.32 6 4 C6.721875 4.185625 7.44375 4.37125 8.1875 4.5625 C12.07658812 6.55025615 14.06644143 9.11031214 16 13 C16.65359229 15.73363781 16.85124583 18.17367083 17 21 C13.20596616 19.73532205 12.93315707 18.38302487 11 15 C9.62514468 13.45833358 9.62514468 13.45833358 8 12 C7.195625 11.175 6.39125 10.35 5.5625 9.5 C3.45708954 7.44594102 1.39843818 5.68778983 -1 4 C-0.67 2.68 -0.34 1.36 0 0 Z " fill="#45D5EE" transform="translate(149,65)"/>
<path d="M0 0 C2.1748057 2.06633659 3.77037188 4.2630858 5 7 C5 8.32 5 9.64 5 11 C7.475 11.495 7.475 11.495 10 12 C9.67 12.99 9.34 13.98 9 15 C8.34 15 7.68 15 7 15 C7 14.34 7 13.68 7 13 C6.01 13 5.02 13 4 13 C4 12.34 4 11.68 4 11 C3.34 11 2.68 11 2 11 C2 10.34 2 9.68 2 9 C1.34 9 0.68 9 0 9 C0 8.01 0 7.02 0 6 C-3.63 5.67 -7.26 5.34 -11 5 C-10.67 3.35 -10.34 1.7 -10 0 C-6.09003503 -1.30332166 -3.97826183 -1.09745154 0 0 Z " fill="#47D4EF" transform="translate(119,39)"/>
<path d="M0 0 C0 0.33 0 0.66 0 1 C-0.74765625 1.04898438 -1.4953125 1.09796875 -2.265625 1.1484375 C-3.25046875 1.22320312 -4.2353125 1.29796875 -5.25 1.375 C-6.22453125 1.44460937 -7.1990625 1.51421875 -8.203125 1.5859375 C-10.94286089 1.82868177 -10.94286089 1.82868177 -12.90625 3.03125 C-16.02298731 4.47332249 -18.84448629 4.18806507 -22.25 4.125 C-23.51328125 4.10695313 -24.7765625 4.08890625 -26.078125 4.0703125 C-27.04234375 4.04710938 -28.0065625 4.02390625 -29 4 C-29.66 2.68 -30.32 1.36 -31 0 C-21.70836318 -3.09721227 -9.65391651 -0.82160992 0 0 Z " fill="#CDD6DE" transform="translate(121,89)"/>
<path d="M0 0 C-1.25719897 3.77159691 -2.7123309 4.83312718 -6 7 C-6.86625 6.979375 -7.7325 6.95875 -8.625 6.9375 C-9.40875 6.958125 -10.1925 6.97875 -11 7 C-12.04892238 8.63631892 -13.04906703 10.30485863 -14 12 C-16.1875 12.8125 -16.1875 12.8125 -18 13 C-17.53767151 8.44048455 -16.07947392 6.67903614 -12.625 3.75 C-11.43777344 2.72132813 -11.43777344 2.72132813 -10.2265625 1.671875 C-6.52128631 -1.11033238 -4.34508405 -1.05691234 0 0 Z " fill="#49D1EC" transform="translate(137,166)"/>
<path d="M0 0 C0.66 0.33 1.32 0.66 2 1 C0.68 3.31 -0.64 5.62 -2 8 C-1.45859375 8.06058594 -0.9171875 8.12117188 -0.359375 8.18359375 C3.01143203 9.34998227 5.21740133 11.64622804 7.75 14.0625 C8.25660156 14.53494141 8.76320313 15.00738281 9.28515625 15.49414062 C10.52949613 16.65630711 11.76558064 17.82730161 13 19 C16.38314582 17.55365287 16.38314582 17.55365287 18.25 14.375 C18.4975 13.59125 18.745 12.8075 19 12 C20.37553268 15.82092412 19.81309902 19.08234111 19 23 C17 24 17 24 14.6875 23.3125 C10.92668226 21.47582157 7.97484622 19.34041355 5.5 15.9375 C3.65244175 13.5510706 1.61046975 12.47257268 -1 11 C-3 9 -3 9 -3.3125 6.625 C-2.94914998 3.57285984 -2.01544839 2.26737944 0 0 Z " fill="#8D5D98" transform="translate(50,106)"/>
<path d="M0 0 C-0.33 0.99 -0.66 1.98 -1 3 C-4.3 3.66 -7.6 4.32 -11 5 C-11.33 6.32 -11.66 7.64 -12 9 C-13.12109375 11.140625 -13.12109375 11.140625 -14.4375 13.25 C-14.86933594 13.95640625 -15.30117187 14.6628125 -15.74609375 15.390625 C-16.36677734 16.18726563 -16.36677734 16.18726563 -17 17 C-17.66 17 -18.32 17 -19 17 C-18.11398434 11.15229664 -16.34351115 6.50345296 -12.375 2.0625 C-8.05507647 -0.57745327 -4.92507538 -0.49250754 0 0 Z " fill="#D3E8F1" transform="translate(93,90)"/>
<path d="M0 0 C0.33 0.66 0.66 1.32 1 2 C-1 4 -1 4 -4.625 4.125 C-5.73875 4.08375 -6.8525 4.0425 -8 4 C-8.33 4.66 -8.66 5.32 -9 6 C-9 5.34 -9 4.68 -9 4 C-11.01822917 4.09765625 -13.03645833 4.1953125 -15.0546875 4.29296875 C-15.69664063 4.19628906 -16.33859375 4.09960938 -17 4 C-17.66 3.01 -18.32 2.02 -19 1 C-15.2899108 -2.7100892 -4.65865932 -1.19586121 0 0 Z " fill="#DEDEE7" transform="translate(120,60)"/>
<path d="M0 0 C-0.33 1.32 -0.66 2.64 -1 4 C-2.65 4.33 -4.3 4.66 -6 5 C-6.33 6.32 -6.66 7.64 -7 9 C-10.3 9 -13.6 9 -17 9 C-15.37660195 7.29115995 -13.70680947 5.62553283 -12 4 C-11.34 4 -10.68 4 -10 4 C-10 3.01 -10 2.02 -10 1 C-6.87524604 -0.56237698 -3.44998644 0 0 0 Z " fill="#48D3ED" transform="translate(90,56)"/>
<path d="M0 0 C4.54219234 -0.36828587 4.54219234 -0.36828587 6.578125 1.26953125 C8.10784233 3.13124767 8.72110156 4.5878646 9.4375 6.875 C10.70389977 10.5260036 12.38256073 13.11179115 15 16 C14.67 16.66 14.34 17.32 14 18 C13.56429687 17.48050781 13.12859375 16.96101563 12.6796875 16.42578125 C6.64604109 9.26757859 6.64604109 9.26757859 -1 4 C-0.67 2.68 -0.34 1.36 0 0 Z " fill="#E8348B" transform="translate(91,136)"/>
<path d="M0 0 C3.55003269 0.98612019 4.93395893 1.91967978 7.3125 4.8125 C9.03476801 8.06567291 9.73226288 9.43021845 9 13 C7.125 15.8125 7.125 15.8125 5 18 C4.34 18 3.68 18 3 18 C2.71125 18.639375 2.4225 19.27875 2.125 19.9375 C1 22 1 22 -1 23 C-2.13350534 25.01669827 -2.13350534 25.01669827 -3 27 C-4.65 25.68 -6.3 24.36 -8 23 C-6.515 22.2265625 -6.515 22.2265625 -5 21.4375 C-0.48790921 18.88157127 3.20783227 15.50652393 7 12 C5.69101993 6.57708258 4.11090793 3.90009214 0 0 Z " fill="#6E6AA0" transform="translate(168,102)"/>
<path d="M0 0 C0.33 0.66 0.66 1.32 1 2 C-0.3125 4.625 -0.3125 4.625 -2 7 C-2.66 7 -3.32 7 -4 7 C-4 7.99 -4 8.98 -4 10 C-3.01 10 -2.02 10 -1 10 C-1 11.32 -1 12.64 -1 14 C0.45833358 15.62514468 0.45833358 15.62514468 2 17 C2 17.66 2 18.32 2 19 C2.66 19 3.32 19 4 19 C4.33 20.32 4.66 21.64 5 23 C2 22 2 22 0.625 19.625 C-0.81454335 16.85157681 -0.81454335 16.85157681 -3.5 15.5 C-6.43310117 13.7401393 -7.45693249 12.00492094 -9 9 C-8.071875 8.443125 -7.14375 7.88625 -6.1875 7.3125 C-3.0580593 5.04212145 -1.70245949 3.40491897 0 0 Z " fill="#77428F" transform="translate(88,134)"/>
<path d="M0 0 C1.98 0.495 1.98 0.495 4 1 C4 1.66 4 2.32 4 3 C4.9075 3.12375 5.815 3.2475 6.75 3.375 C9.58970323 3.92109677 11.52590591 4.57263803 14 6 C13.67 7.65 13.34 9.3 13 11 C12.01 10.67 11.02 10.34 10 10 C10 9.34 10 8.68 10 8 C9.29875 8.103125 8.5975 8.20625 7.875 8.3125 C3.69267689 7.85789966 2.04798887 5.83533849 -1 3 C-0.67 2.01 -0.34 1.02 0 0 Z " fill="#47D4F0" transform="translate(75,157)"/>
<path d="M0 0 C5.29441695 -0.50423019 7.81413519 0.81076967 12 4 C11.75 5.875 11.75 5.875 11 8 C8.9375 9.25 8.9375 9.25 7 10 C6.34 9.34 5.68 8.68 5 8 C5 7.01 5 6.02 5 5 C4.01 5 3.02 5 2 5 C1.34 3.35 0.68 1.7 0 0 Z " fill="#49C4DC" transform="translate(68,140)"/>
<path d="M0 0 C0.79148437 -0.01417969 1.58296875 -0.02835937 2.3984375 -0.04296875 C4.625 0.1875 4.625 0.1875 7.625 2.1875 C7.8125 5.3125 7.8125 5.3125 7.625 8.1875 C6.635 8.1875 5.645 8.1875 4.625 8.1875 C3.965 6.8675 3.305 5.5475 2.625 4.1875 C1.67625 4.249375 0.7275 4.31125 -0.25 4.375 C-1.28125 4.313125 -2.3125 4.25125 -3.375 4.1875 C-4.035 3.1975 -4.695 2.2075 -5.375 1.1875 C-3.79539731 -0.39210269 -2.17963184 0.01763456 0 0 Z " fill="#9F1788" transform="translate(57.375,113.8125)"/>
<path d="M0 0 C-2.42108679 5.20935262 -5.66780543 9.83390272 -10.875 12.4375 C-11.926875 12.7159375 -11.926875 12.7159375 -13 13 C-12.75 10.625 -12.75 10.625 -12 8 C-10.0625 6.9375 -10.0625 6.9375 -8 6 C-7.30062468 4.68352881 -6.63270867 3.34977849 -6 2 C-3 0 -3 0 0 0 Z " fill="#48D3EF" transform="translate(153,143)"/>
<path d="M0 0 C3.29714793 0.32971479 4.6226839 0.6226839 7 3 C6.8125 5.5 6.8125 5.5 6 8 C5.01 8.66 4.02 9.32 3 10 C3 9.34 3 8.68 3 8 C1.68 7.67 0.36 7.34 -1 7 C-1.625 4.625 -1.625 4.625 -2 2 C-1.34 1.34 -0.68 0.68 0 0 Z " fill="#E14383" transform="translate(151,90)"/>
<path d="M0 0 C4.50062712 1.50020904 6.72792365 5.06507913 9 9 C13 17.66019417 13 17.66019417 13 21 C14.65 20.34 16.3 19.68 18 19 C18.66 19.66 19.32 20.32 20 21 C18.68 21 17.36 21 16 21 C16.33 21.99 16.66 22.98 17 24 C16.34 24 15.68 24 15 24 C14.67 24.66 14.34 25.32 14 26 C12.87247351 23.77208002 11.74791861 21.54274113 10.625 19.3125 C10.30789062 18.68666016 9.99078125 18.06082031 9.6640625 17.41601562 C8.31682854 14.73558139 7.02991654 12.07655115 5.9375 9.28125 C4.98639924 6.96690481 3.86611749 5.18873664 2.375 3.1875 C1.59125 2.135625 0.8075 1.08375 0 0 Z " fill="#56B0CB" transform="translate(52,119)"/>
<path d="M0 0 C0.33 0.99 0.66 1.98 1 3 C2.65 2.34 4.3 1.68 6 1 C6.3403125 2.2065625 6.3403125 2.2065625 6.6875 3.4375 C7.120625 4.283125 7.55375 5.12875 8 6 C10.54775306 6.89386164 10.54775306 6.89386164 13 7 C12.67 7.66 12.34 8.32 12 9 C8.04179141 8.43454163 5.3340947 7.19097652 2 5 C1.731875 5.928125 1.46375 6.85625 1.1875 7.8125 C0.08851629 10.76240366 -0.62418561 12.05615186 -3 14 C-2.28547412 9.23649415 -1.20465156 4.65798604 0 0 Z " fill="#4FC2DA" transform="translate(73,104)"/>
<path d="M0 0 C1.2065625 0.0309375 1.2065625 0.0309375 2.4375 0.0625 C2.81813221 2.3885857 3.15019945 4.72305264 3.4375 7.0625 C2.4375 8.0625 2.4375 8.0625 -0.0625 8.1875 C-2.5625 8.0625 -2.5625 8.0625 -3.5625 7.0625 C-3.6875 4.0625 -3.6875 4.0625 -3.5625 1.0625 C-2.5625 0.0625 -2.5625 0.0625 0 0 Z " fill="#DAE5EE" transform="translate(123.5625,118.9375)"/>
<path d="M0 0 C0.66 0.33 1.32 0.66 2 1 C2 3.31 2 5.62 2 8 C0.00045254 8.04254356 -2.00041636 8.04080783 -4 8 C-5 7 -5 7 -5.0625 4.4375 C-5.041875 3.633125 -5.02125 2.82875 -5 2 C-2.625 0.9375 -2.625 0.9375 0 0 Z " fill="#DBEBF6" transform="translate(103,118)"/>
<path d="M0 0 C0.33 0.66 0.66 1.32 1 2 C-0.26446168 5.44853186 -2.06155968 7.81500591 -5 10 C-10.01975497 11.30664034 -14.33946879 11.55577518 -19 9 C-18.34 8.01 -17.68 7.02 -17 6 C-16.1646875 6.7734375 -16.1646875 6.7734375 -15.3125 7.5625 C-13.11593182 9.23921739 -13.11593182 9.23921739 -10.625 8.84375 C-7.41235833 7.81111518 -5.98166344 6.38719995 -3.6875 3.9375 C-2.99011719 3.20402344 -2.29273437 2.47054687 -1.57421875 1.71484375 C-1.05472656 1.14894531 -0.53523438 0.58304688 0 0 Z " fill="#AA1780" transform="translate(124,149)"/>
<path d="M0 0 C1.87728454 3.75456909 0.27082072 8.16261979 -1 12 C-3.375 14.375 -3.375 14.375 -6 16 C-7.35147138 17.31494512 -8.69112542 18.64264858 -10 20 C-9.75 17.125 -9.75 17.125 -9 14 C-7.0625 12.875 -7.0625 12.875 -5 12 C-2.66917993 8.43521636 -1.45933647 3.98000854 0 0 Z " fill="#5EBFDB" transform="translate(62,85)"/>
<path d="M0 0 C1.39120471 0.00015906 2.78241534 0.00585033 4.17358398 0.01586914 C4.90463852 0.01728409 5.63569305 0.01869904 6.38890076 0.02015686 C8.73253406 0.02577131 11.07607313 0.03832617 13.41967773 0.05102539 C15.00496282 0.05603853 16.59024939 0.06060176 18.17553711 0.06469727 C22.06945383 0.07574542 25.96329979 0.09301967 29.85717773 0.11352539 C29.85717773 0.44352539 29.85717773 0.77352539 29.85717773 1.11352539 C14.51217773 1.60852539 14.51217773 1.60852539 -1.14282227 2.11352539 C-1.80282227 3.43352539 -2.46282227 4.75352539 -3.14282227 6.11352539 C-1.49282227 6.11352539 0.15717773 6.11352539 1.85717773 6.11352539 C1.85717773 6.44352539 1.85717773 6.77352539 1.85717773 7.11352539 C-0.12282227 7.11352539 -2.10282227 7.11352539 -4.14282227 7.11352539 C-4.18536583 5.11397793 -4.18363009 3.11310903 -4.14282227 1.11352539 C-3.14282227 0.11352539 -3.14282227 0.11352539 0 0 Z " fill="#4FD1E8" transform="translate(98.142822265625,95.886474609375)"/>
<path d="M0 0 C6.35714286 0.48901099 6.35714286 0.48901099 9.4375 2.9375 C11 5 11 5 11 7 C3.5263755 6.50992626 3.5263755 6.50992626 1 4.0625 C0 2 0 2 0 0 Z " fill="#D8DCE6" transform="translate(133,65)"/>
<path d="M0 0 C0.66 0.33 1.32 0.66 2 1 C3.4465242 1.15067214 4.8987934 1.24861036 6.3515625 1.31640625 C7.62773438 1.37924805 7.62773438 1.37924805 8.9296875 1.44335938 C9.81914063 1.48267578 10.70859375 1.52199219 11.625 1.5625 C12.97078125 1.62727539 12.97078125 1.62727539 14.34375 1.69335938 C16.56234283 1.79956861 18.7810488 1.90161194 21 2 C21 2.33 21 2.66 21 3 C19.92621094 3.04898438 18.85242188 3.09796875 17.74609375 3.1484375 C16.30987358 3.22353398 14.87367681 3.29907876 13.4375 3.375 C12.73302734 3.4059375 12.02855469 3.436875 11.30273438 3.46875 C6.63480133 3.72688455 2.4242543 4.35973422 -2 6 C-2.66 6.99 -3.32 7.98 -4 9 C-4.8125 7.3125 -4.8125 7.3125 -5 5 C-2.5625 2.25 -2.5625 2.25 0 0 Z " fill="#D0485B" transform="translate(101,75)"/>
<path d="M0 0 C3 0.0625 3 0.0625 6 1 C7.375 3.5625 7.375 3.5625 8 6 C5.03 6 2.06 6 -1 6 C-1.33 4.68 -1.66 3.36 -2 2 C-1.34 1.34 -0.68 0.68 0 0 Z " fill="#F5C210" transform="translate(111,69)"/>
<path d="M0 0 C2.69082872 0.17635452 5.32851446 0.61835921 8 1 C8 2.32 8 3.64 8 5 C4.37 5 0.74 5 -3 5 C-1 1 -1 1 0 0 Z " fill="#F43A80" transform="translate(110,51)"/>
<path d="M0 0 C1.37553268 3.82092412 0.81309902 7.08234111 0 11 C-2 12 -2 12 -4.3125 11.375 C-7.52037899 9.73375959 -9.57152549 7.63662947 -12 5 C-9.36 5.66 -6.72 6.32 -4 7 C-1.90493748 3.55291141 -1.90493748 3.55291141 0 0 Z " fill="#986697" transform="translate(69,118)"/>
<path d="M0 0 C0.33 0 0.66 0 1 0 C1.3125 2.1875 1.3125 2.1875 1 5 C-0.9375 7.1875 -0.9375 7.1875 -2.296875 8.3984375 C-5.44591966 11.3596951 -8.17923525 14.72735487 -11.01171875 17.98828125 C-11.99591797 18.98408203 -11.99591797 18.98408203 -13 20 C-13.66 20 -14.32 20 -15 20 C-13.50215434 16.43255038 -11.43441784 14.31491237 -8.625 11.6875 C-4.85387437 8.01960969 -2.30465405 4.70951045 0 0 Z " fill="#54C4D9" transform="translate(54,88)"/>
<path d="M0 0 C2.4375 0.8125 2.4375 0.8125 5 2 C5.33 2.99 5.66 3.98 6 5 C4.7934375 5.8971875 4.7934375 5.8971875 3.5625 6.8125 C0.77672016 8.80947276 0.77672016 8.80947276 0 12 C-3.0625 13.1875 -3.0625 13.1875 -6 14 C-5.04956626 12.66102417 -4.08940853 11.32894573 -3.125 10 C-2.32449219 8.88625 -2.32449219 8.88625 -1.5078125 7.75 C-1.01023438 7.1725 -0.51265625 6.595 0 6 C0.66 6 1.32 6 2 6 C2 4.68 2 3.36 2 2 C1.34 2 0.68 2 0 2 C0 1.34 0 0.68 0 0 Z " fill="#6E399A" transform="translate(140,140)"/>
<path d="M0 0 C0.33 0 0.66 0 1 0 C1.12375 0.78375 1.2475 1.5675 1.375 2.375 C1.79117993 5.14057822 1.79117993 5.14057822 4 7 C2.68 7.33 1.36 7.66 0 8 C0 8.66 0 9.32 0 10 C-1.65 10 -3.3 10 -5 10 C-5.33 10.99 -5.66 11.98 -6 13 C-6 12.01 -6 11.02 -6 10 C-6.66 9.67 -7.32 9.34 -8 9 C-6.35 8.67 -4.7 8.34 -3 8 C-2.67 6.35 -2.34 4.7 -2 3 C-1.34 3 -0.68 3 0 3 C0 2.01 0 1.02 0 0 Z " fill="#41D6EE" transform="translate(167,131)"/>
<path d="M0 0 C1.98 0 3.96 0 6 0 C5.319375 0.495 4.63875 0.99 3.9375 1.5 C0.82692697 4.1472962 -1.70485746 6.99629606 -4.3515625 10.09375 C-6.14182441 12.16400548 -8.02578518 14.10475378 -10 16 C-10.66 15.67 -11.32 15.34 -12 15 C-11.278125 14.29875 -10.55625 13.5975 -9.8125 12.875 C-5.96555487 9.01712605 -2.14974261 5.08120981 0 0 Z " fill="#4995AE" transform="translate(125,164)"/>
<path d="M0 0 C2.79305817 1.5039544 5.36024081 3.24016054 8 5 C8 5.99 8 6.98 8 8 C8.66 8 9.32 8 10 8 C9.67 9.32 9.34 10.64 9 12 C9 11.34 9 10.68 9 10 C8.01 10 7.02 10 6 10 C1 4.65116279 1 4.65116279 1 2 C0.01 2.33 -0.98 2.66 -2 3 C-2 2.34 -2 1.68 -2 1 C-1.34 0.67 -0.68 0.34 0 0 Z " fill="#8D3285" transform="translate(132,134)"/>
<path d="M0 0 C0.99 0 1.98 0 3 0 C4.23076923 5.41538462 4.23076923 5.41538462 3.0625 8.375 C2.711875 8.91125 2.36125 9.4475 2 10 C-0.0625 8.3125 -0.0625 8.3125 -2 6 C-1.7 1.7 -1.7 1.7 0 0 Z " fill="#4D7586" transform="translate(89,99)"/>
<path d="M0 0 C0.33 2.31 0.66 4.62 1 7 C0.34 7 -0.32 7 -1 7 C-1.33 5.35 -1.66 3.7 -2 2 C-5.11332248 2.66868314 -5.11332248 2.66868314 -6.1875 5.0625 C-6.455625 5.701875 -6.72375 6.34125 -7 7 C-8.65 6.67 -10.3 6.34 -12 6 C-10.68 5.67 -9.36 5.34 -8 5 C-7.67 3.35 -7.34 1.7 -7 0 C-3.86650268 -1.04449911 -3.01031744 -0.93423645 0 0 Z " fill="#54A6BE" transform="translate(94,97)"/>
<path d="M0 0 C0 3.52809907 -0.64276511 4.46815512 -3 7 C-3.99 7 -4.98 7 -6 7 C-6.2475 7.598125 -6.495 8.19625 -6.75 8.8125 C-8.16370012 11.28647521 -9.65055383 12.43370255 -12 14 C-12.66 13.67 -13.32 13.34 -14 13 C-12.71937515 11.2925002 -11.38232443 9.62626404 -10 8 C-9.34 8 -8.68 8 -8 8 C-7.67 7.01 -7.34 6.02 -7 5 C-5.37109375 3.61328125 -5.37109375 3.61328125 -3.4375 2.3125 C-2.79683594 1.87550781 -2.15617187 1.43851562 -1.49609375 0.98828125 C-1.00238281 0.66214844 -0.50867188 0.33601563 0 0 Z " fill="#A55992" transform="translate(66,92)"/>
<path d="M0 0 C-0.78375 0.556875 -1.5675 1.11375 -2.375 1.6875 C-5.15285323 4.13465642 -5.8793136 5.55173415 -7 9 C-8.47021272 12.84517172 -10.38274895 14.09618366 -14 16 C-12.8415241 13.6830482 -11.6780961 11.36960487 -10.5 9.0625 C-8.09928601 4.7268199 -8.09928601 4.7268199 -7 0 C-2.25 -1.125 -2.25 -1.125 0 0 Z " fill="#5BBBD6" transform="translate(77,69)"/>
<path d="M0 0 C3.0625 0.125 3.0625 0.125 5.0625 1.125 C5.0625 2.115 5.0625 3.105 5.0625 4.125 C5.7225 4.125 6.3825 4.125 7.0625 4.125 C7.18625 5.300625 7.18625 5.300625 7.3125 6.5 C7.79056339 9.27249104 7.79056339 9.27249104 10.125 10.4375 C10.764375 10.664375 11.40375 10.89125 12.0625 11.125 C11.0725 11.455 10.0825 11.785 9.0625 12.125 C6.25817434 10.59536782 5.23140364 9.58666995 4.125 6.5625 C3.27273533 3.89615008 3.27273533 3.89615008 0.5625 2.875 C-0.2625 2.6275 -1.0875 2.38 -1.9375 2.125 C-2.5975 1.795 -3.2575 1.465 -3.9375 1.125 C-2.9375 0.125 -2.9375 0.125 0 0 Z " fill="#4FAAC7" transform="translate(113.9375,43.875)"/>
<path d="M0 0 C0.99 0.33 1.98 0.66 3 1 C1.61714856 2.49131037 0.21814261 3.96765185 -1.1875 5.4375 C-1.96480469 6.26121094 -2.74210937 7.08492187 -3.54296875 7.93359375 C-6.18054107 10.1518382 -7.57864857 10.87120936 -11 11 C-11.99 10.34 -12.98 9.68 -14 9 C-14 8.34 -14 7.68 -14 7 C-11.69 7.66 -9.38 8.32 -7 9 C-7 8.01 -7 7.02 -7 6 C-6.01 5.67 -5.02 5.34 -4 5 C-3.34 4.01 -2.68 3.02 -2 2 C-1.34 2 -0.68 2 0 2 C0 1.34 0 0.68 0 0 Z " fill="#EA388D" transform="translate(122,148)"/>
<path d="M0 0 C1.9375 1.5 1.9375 1.5 3 3 C1.39125 2.938125 1.39125 2.938125 -0.25 2.875 C-3.81776361 2.99392545 -5.03798717 3.32152606 -8 5 C-9.65740715 5.37668344 -11.32345271 5.72057545 -13 6 C-8.79959884 0.53947849 -7.02007853 -0.49263709 0 0 Z " fill="#4FC8DC" transform="translate(116,36)"/>
<path d="M0 0 C1.65 0.33 3.3 0.66 5 1 C5.625 2.875 5.625 2.875 6 5 C5.34 5.66 4.68 6.32 4 7 C-0.09176955 6.69690596 -3.46165096 6.12300942 -7 4 C-7 3.67 -7 3.34 -7 3 C-5.35 3 -3.7 3 -2 3 C-2 3.66 -2 4.32 -2 5 C-1.01 5 -0.02 5 1 5 C1.33 3.68 1.66 2.36 2 1 C1.34 0.67 0.68 0.34 0 0 Z " fill="#52CEE7" transform="translate(87,162)"/>
<path d="M0 0 C1.32 1.32 2.64 2.64 4 4 C0.58423991 6.09376089 -1.89731433 6.17870845 -5.859375 5.9765625 C-7.53193359 5.89921875 -7.53193359 5.89921875 -9.23828125 5.8203125 C-10.39714844 5.75585938 -11.55601563 5.69140625 -12.75 5.625 C-14.51150391 5.53992188 -14.51150391 5.53992188 -16.30859375 5.453125 C-19.20635647 5.31177072 -22.10323749 5.16036781 -25 5 C-25 4.67 -25 4.34 -25 4 C-16.42 4 -7.84 4 1 4 C0.67 2.68 0.34 1.36 0 0 Z " fill="#E34280" transform="translate(128,81)"/>
<path d="M0 0 C0.33 0.66 0.66 1.32 1 2 C0.01 3.485 0.01 3.485 -1 5 C-1.66 5 -2.32 5 -3 5 C-3 5.99 -3 6.98 -3 8 C-0.69 8 1.62 8 4 8 C4 8.33 4 8.66 4 9 C0.37 9.33 -3.26 9.66 -7 10 C-5.86105812 5.44423249 -4.37225486 4.11933575 -1 1 C-0.67 0.67 -0.34 0.34 0 0 Z " fill="#CE4286" transform="translate(55,104)"/>
<path d="M0 0 C3.77545388 1.09068668 6.47043472 1.9083091 9 5 C6.61435923 4.42415568 4.33317216 3.77772405 2 3 C1.67 4.32 1.34 5.64 1 7 C1.66 7 2.32 7 3 7 C2.67 7.66 2.34 8.32 2 9 C0.02 8.01 -1.96 7.02 -4 6 C-3.34 5.566875 -2.68 5.13375 -2 4.6875 C-1.01 3.8521875 -1.01 3.8521875 0 3 C0 2.01 0 1.02 0 0 Z " fill="#51BDD7" transform="translate(92,164)"/>
<path d="M0 0 C6.07452764 2.96004525 9.37481082 6.08502456 12.3984375 12.09765625 C13 14 13 14 12 17 C11.63648438 16.35933594 11.27296875 15.71867187 10.8984375 15.05859375 C7.6829015 9.52622284 4.31447021 4.72537214 0 0 Z " fill="#5AC5DA" transform="translate(148,69)"/>
<path d="M0 0 C4.18423892 3.50897269 8.19588166 7.08060535 12 11 C11.67 11.66 11.34 12.32 11 13 C10.0925 12.21625 9.185 11.4325 8.25 10.625 C6.35682158 9.01825992 5.00837688 8.00339603 2.6875 7.0625 C1 6 1 6 0.25 2.875 C0.1675 1.92625 0.085 0.9775 0 0 Z " fill="#CE3F7D" transform="translate(99,140)"/>
<path d="M0 0 C2.3125 -0.25 2.3125 -0.25 5 0 C6.8125 2 6.8125 2 8 4 C1.25 5.125 1.25 5.125 -1 4 C-0.67 2.68 -0.34 1.36 0 0 Z " fill="#DF3787" transform="translate(91,136)"/>
<path d="M0 0 C0.99 0.33 1.98 0.66 3 1 C4.99186369 6.13691161 5.1921227 10.52450293 5 16 C4.67 16 4.34 16 4 16 C3.33011414 13.70922959 2.66396838 11.41748541 2 9.125 C1.80921875 8.47402344 1.6184375 7.82304688 1.421875 7.15234375 C0 2.2265625 0 2.2265625 0 0 Z " fill="#B35589" transform="translate(151,97)"/>
<path d="M0 0 C0.763125 0.20625 1.52625 0.4125 2.3125 0.625 C2.3125 1.615 2.3125 2.605 2.3125 3.625 C3.6325 3.955 4.9525 4.285 6.3125 4.625 C2.6825 4.625 -0.9475 4.625 -4.6875 4.625 C-5.0175 3.635 -5.3475 2.645 -5.6875 1.625 C-2.6875 -0.375 -2.6875 -0.375 0 0 Z " fill="#D5DAE3" transform="translate(122.6875,60.375)"/>
<path d="M0 0 C5.41538462 -0.36923077 5.41538462 -0.36923077 8.375 1.5 C8.91125 1.995 9.4475 2.49 10 3 C5.25 6 5.25 6 3 6 C2.01 4.02 1.02 2.04 0 0 Z " fill="#46D4EB" transform="translate(136,58)"/>
<path d="M0 0 C0.66 0.33 1.32 0.66 2 1 C0.5625 3.5 0.5625 3.5 -2 6 C-6.25042869 6.87348259 -9.80502728 6.69949622 -13.5625 4.5 C-14.036875 4.005 -14.51125 3.51 -15 3 C-14.34 3 -13.68 3 -13 3 C-13 2.34 -13 1.68 -13 1 C-12.34 1.33 -11.68 1.66 -11 2 C-11.33 2.66 -11.66 3.32 -12 4 C-5.68731397 4.37552165 -5.68731397 4.37552165 0 2 C0 1.34 0 0.68 0 0 Z " fill="#5BB1D1" transform="translate(86,134)"/>
<path d="M0 0 C1.50433594 0.01353516 1.50433594 0.01353516 3.0390625 0.02734375 C3.80992188 0.03894531 4.58078125 0.05054687 5.375 0.0625 C5.375 0.3925 5.375 0.7225 5.375 1.0625 C4.59253906 1.19527344 3.81007813 1.32804687 3.00390625 1.46484375 C1.48603516 1.72974609 1.48603516 1.72974609 -0.0625 2 C-1.07183594 2.17402344 -2.08117187 2.34804687 -3.12109375 2.52734375 C-5.5537438 2.81001097 -5.5537438 2.81001097 -6.625 4.0625 C-9.0625 4.3125 -9.0625 4.3125 -11.625 4.0625 C-12.285 3.0725 -12.945 2.0825 -13.625 1.0625 C-12.67625 1.083125 -11.7275 1.10375 -10.75 1.125 C-6.96056642 1.04921133 -3.93174995 -0.04571802 0 0 Z " fill="#68C4DC" transform="translate(121.625,117.9375)"/>
<path d="M0 0 C1.32 0.99 2.64 1.98 4 3 C3.67 4.32 3.34 5.64 3 7 C1.02 7.33 -0.96 7.66 -3 8 C-3.36923077 3.44615385 -3.36923077 3.44615385 -1.5 1.1875 C-1.005 0.795625 -0.51 0.40375 0 0 Z " fill="#46D5EF" transform="translate(153,151)"/>
<path d="M0 0 C2.31 0.66 4.62 1.32 7 2 C7 2.99 7 3.98 7 5 C5.02 5.99 5.02 5.99 3 7 C0 2.25 0 2.25 0 0 Z " fill="#47D2EA" transform="translate(72,143)"/>
<path d="M0 0 C6.0546875 -0.1953125 6.0546875 -0.1953125 8 0 C8.66 0.66 9.32 1.32 10 2 C8.35 2 6.7 2 5 2 C5 3.65 5 5.3 5 7 C3.35 7 1.7 7 0 7 C0.33 6.34 0.66 5.68 1 5 C1.99 5.33 2.98 5.66 4 6 C3.67 5.01 3.34 4.02 3 3 C2.01 2.67 1.02 2.34 0 2 C0 1.34 0 0.68 0 0 Z " fill="#62C6DA" transform="translate(132,95)"/>
<path d="M0 0 C1.875 0.3125 1.875 0.3125 4 1 C4.66 1.99 5.32 2.98 6 4 C3.525 5.485 3.525 5.485 1 7 C1 6.01 1 5.02 1 4 C0.34 4 -0.32 4 -1 4 C-0.67 2.68 -0.34 1.36 0 0 Z " fill="#49D3F1" transform="translate(94,167)"/>
<path d="M0 0 C0.99 0 1.98 0 3 0 C5.0625 2.375 5.0625 2.375 7 5 C7.66 5.66 8.32 6.32 9 7 C5.30581799 7 3.22163822 5.71820705 0 4 C0 2.68 0 1.36 0 0 Z " fill="#43CFE4" transform="translate(64,150)"/>
<path d="M0 0 C0.66 0.33 1.32 0.66 2 1 C2.05447047 2.41623216 2.09300508 3.83308191 2.125 5.25 C2.14820313 6.03890625 2.17140625 6.8278125 2.1953125 7.640625 C1.9828378 10.20731941 1.28654105 11.7916067 0 14 C-0.91297308 9.02936879 -0.91297308 4.97063121 0 0 Z " fill="#52B8D7" transform="translate(156,120)"/>
<path d="M0 0 C0.33 0.99 0.66 1.98 1 3 C8.92 2.505 8.92 2.505 17 2 C17 2.66 17 3.32 17 4 C10.73 4 4.46 4 -2 4 C-1.34 2.68 -0.68 1.36 0 0 Z " fill="#B26191" transform="translate(105,53)"/>
<path d="M0 0 C0.66 0.33 1.32 0.66 2 1 C0.92807816 2.3218362 -0.15802695 3.63217927 -1.25 4.9375 C-1.85328125 5.66839844 -2.4565625 6.39929687 -3.078125 7.15234375 C-5.10741134 9.10326334 -6.254407 9.61731779 -9 10 C-8.06409496 8.8944811 -7.12620142 7.79064547 -6.1875 6.6875 C-5.66542969 6.07261719 -5.14335938 5.45773438 -4.60546875 4.82421875 C-3.12827531 3.14575321 -1.59960869 1.56117966 0 0 Z " fill="#5E9EBB" transform="translate(108,46)"/>
<path d="M0 0 C0.99 0.33 1.98 0.66 3 1 C3.33 4.3 3.66 7.6 4 11 C3.34 11 2.68 11 2 11 C0.19769832 7.17010894 -0.19622241 4.21878192 0 0 Z " fill="#80458C" transform="translate(156,114)"/>
<path d="M0 0 C0.33 0.99 0.66 1.98 1 3 C1.66 3.33 2.32 3.66 3 4 C1.35 7.3 -0.3 10.6 -2 14 C-3.04692525 9.81229899 -2.85469996 8.67828787 -1.5625 4.75 C-1.27503906 3.85796875 -0.98757812 2.9659375 -0.69140625 2.046875 C-0.46324219 1.37140625 -0.23507813 0.6959375 0 0 Z " fill="#76B2C7" transform="translate(73,104)"/>
<path d="M0 0 C1.6875 2.5 1.6875 2.5 3 5 C-0.63 4.67 -4.26 4.34 -8 4 C-8 3.34 -8 2.68 -8 2 C-5.09399739 0.74335022 -3.20395416 0 0 0 Z " fill="#52CDE0" transform="translate(105,114)"/>
<path d="M0 0 C-0.66 0.66 -1.32 1.32 -2 2 C-2.16681109 5.08347826 -2.16681109 5.08347826 -2 8 C-2.66 8 -3.32 8 -4 8 C-4.99 5.69 -5.98 3.38 -7 1 C-3.375 -1.125 -3.375 -1.125 0 0 Z " fill="#52B9D5" transform="translate(50,108)"/>
<path d="M0 0 C0.5775 0.515625 1.155 1.03125 1.75 1.5625 C1.42 2.2225 1.09 2.8825 0.75 3.5625 C-0.178125 3.335625 -1.10625 3.10875 -2.0625 2.875 C-5.21826848 2.19930017 -5.21826848 2.19930017 -7.125 4 C-7.49625 4.515625 -7.8675 5.03125 -8.25 5.5625 C-7.74396008 3.39375748 -7.25016187 1.56282373 -6.25 -0.4375 C-3.4269713 -1.70299562 -2.65631005 -1.69708697 0 0 Z " fill="#D8B13F" transform="translate(116.25,67.4375)"/>
<path d="M0 0 C0.66 0.33 1.32 0.66 2 1 C0.79618552 3.49361571 -0.45428722 5.68143083 -2 8 C-4.625 8.1875 -4.625 8.1875 -7 8 C-6.67 7.34 -6.34 6.68 -6 6 C-5.34 6 -4.68 6 -4 6 C-3.71125 5.38125 -3.4225 4.7625 -3.125 4.125 C-2 2 -2 2 0 0 Z " fill="#53C7E4" transform="translate(151,151)"/>
<path d="M0 0 C2 0 2 0 4.4375 2.3125 C5.283125 3.199375 6.12875 4.08625 7 5 C7.598125 5.598125 8.19625 6.19625 8.8125 6.8125 C9.204375 7.204375 9.59625 7.59625 10 8 C5.17965738 7.58682778 3.09007389 5.61980085 0 2 C0 1.34 0 0.68 0 0 Z " fill="#539BBC" transform="translate(135,132)"/>
<path d="M0 0 C0.99 0.66 1.98 1.32 3 2 C3.1875 4.625 3.1875 4.625 3 7 C0.37812506 5.95125002 -0.79371361 5.35068687 -2.25 2.875 C-2.4975 2.25625 -2.745 1.6375 -3 1 C-2.01 1.33 -1.02 1.66 0 2 C0 1.34 0 0.68 0 0 Z " fill="#C0CAD5" transform="translate(156,82)"/>
<path d="M0 0 C0.66 0 1.32 0 2 0 C1.82374165 2.37948772 1.30280227 3.70225849 -0.40234375 5.37890625 C-1.90649092 6.62115486 -3.45129851 7.81376056 -5 9 C-4.67 7.35 -4.34 5.7 -4 4 C-3.34 4 -2.68 4 -2 4 C-2 3.34 -2 2.68 -2 2 C-1.34 2 -0.68 2 0 2 C0 1.34 0 0.68 0 0 Z " fill="#5DD1E7" transform="translate(161,149)"/>
<path d="M0 0 C0.33 0.99 0.66 1.98 1 3 C-1.64 5.31 -4.28 7.62 -7 10 C-7.66 9.67 -8.32 9.34 -9 9 C-8.06725891 7.87105124 -7.12859878 6.74699124 -6.1875 5.625 C-5.66542969 4.99851563 -5.14335937 4.37203125 -4.60546875 3.7265625 C-3 2 -3 2 0 0 Z " fill="#AA177E" transform="translate(134,139)"/>
<path d="M0 0 C0.99 0.33 1.98 0.66 3 1 C2.75 2.875 2.75 2.875 2 5 C-0.0625 6.25 -0.0625 6.25 -2 7 C-2 3.89448334 -1.4606285 2.64738916 0 0 Z " fill="#D9DDEC" transform="translate(67,84)"/>
<path d="M0 0 C2.86724686 0.57344937 3.8614515 0.8614515 6 3 C6.99 3.33 7.98 3.66 9 4 C8.67 4.66 8.34 5.32 8 6 C5.6875 5.8125 5.6875 5.8125 3 5 C1.1875 2.4375 1.1875 2.4375 0 0 Z " fill="#704795" transform="translate(107,170)"/>
<path d="M0 0 C0.33 0.66 0.66 1.32 1 2 C0.00390625 4.1640625 0.00390625 4.1640625 -1.4375 6.625 C-1.91058594 7.44226563 -2.38367188 8.25953125 -2.87109375 9.1015625 C-3.24363281 9.72804687 -3.61617187 10.35453125 -4 11 C-5 8 -5 8 -3.6875 4.375 C-2 1 -2 1 0 0 Z " fill="#5ACEE6" transform="translate(169,138)"/>
<path d="M0 0 C3.465 1.485 3.465 1.485 7 3 C6.34 4.32 5.68 5.64 5 7 C4.34 6.01 3.68 5.02 3 4 C0.43717258 3.27034634 0.43717258 3.27034634 -2 3 C-1.34 2.01 -0.68 1.02 0 0 Z " fill="#CB508B" transform="translate(70,89)"/>
<path d="M0 0 C0.33 0 0.66 0 1 0 C1.3125 2.1875 1.3125 2.1875 1 5 C-1.5 7.8125 -1.5 7.8125 -4 10 C-4.66 9.67 -5.32 9.34 -6 9 C-5.02501855 7.4972763 -4.04490611 5.99788037 -3.0625 4.5 C-2.51722656 3.6646875 -1.97195312 2.829375 -1.41015625 1.96875 C-0.94480469 1.3190625 -0.47945312 0.669375 0 0 Z " fill="#53CEE6" transform="translate(54,88)"/>
<path d="M0 0 C0.33 0.99 0.66 1.98 1 3 C1.66 3.33 2.32 3.66 3 4 C-0.75 7 -0.75 7 -3 7 C-2.25 2.25 -2.25 2.25 0 0 Z " fill="#4CCAE8" transform="translate(143,149)"/>
<path d="M0 0 C2.4375 0.8125 2.4375 0.8125 5 2 C5.33 2.99 5.66 3.98 6 5 C4.02 5.99 4.02 5.99 2 7 C2 5.35 2 3.7 2 2 C1.34 2 0.68 2 0 2 C0 1.34 0 0.68 0 0 Z " fill="#6A579F" transform="translate(140,140)"/>
<path d="M0 0 C1.37553268 3.82092412 0.81309902 7.08234111 0 11 C-0.99 11.495 -0.99 11.495 -2 12 C-2.66 11.34 -3.32 10.68 -4 10 C-3.34 9.01 -2.68 8.02 -2 7 C-1.29187186 4.67891331 -0.61975848 2.34622853 0 0 Z " fill="#7097B1" transform="translate(69,118)"/>
<path d="M0 0 C1.15518918 0.90484792 2.29885406 1.8244206 3.4375 2.75 C4.07558594 3.26046875 4.71367187 3.7709375 5.37109375 4.296875 C7.18810554 6.19667629 7.60423197 7.43586908 8 10 C6.65555841 9.09970429 5.32468562 8.17911978 4 7.25 C3.2575 6.73953125 2.515 6.2290625 1.75 5.703125 C1.1725 5.14109375 0.595 4.5790625 0 4 C0 2.68 0 1.36 0 0 Z " fill="#A2487F" transform="translate(166,100)"/>
<path d="M0 0 C-0.33 0.99 -0.66 1.98 -1 3 C-2.65 3.33 -4.3 3.66 -6 4 C-6.66 3.01 -7.32 2.02 -8 1 C-5.29120665 -0.35439668 -2.99066732 -0.06501451 0 0 Z " fill="#D9ECF5" transform="translate(93,90)"/>
<path d="M0 0 C2.375 -0.1875 2.375 -0.1875 5 0 C5.66 0.99 6.32 1.98 7 3 C6.67 3.99 6.34 4.98 6 6 C3.97945196 4.35830472 1.97956942 2.69088222 0 1 C0 0.67 0 0.34 0 0 Z " fill="#A51B7C" transform="translate(55,118)"/>
<path d="M0 0 C0.99 0 1.98 0 3 0 C1.14285714 7.57142857 1.14285714 7.57142857 -2 10 C-2.66 9.67 -3.32 9.34 -4 9 C-3.525625 8.62875 -3.05125 8.2575 -2.5625 7.875 C-0.47794198 5.37353038 -0.35378509 3.18406582 0 0 Z " fill="#C0498E" transform="translate(67,116)"/>
<path d="M0 0 C0.99 0 1.98 0 3 0 C2.67 1.65 2.34 3.3 2 5 C0.35 5.33 -1.3 5.66 -3 6 C-3.33 5.34 -3.66 4.68 -4 4 C-2.68 3.34 -1.36 2.68 0 2 C0 1.34 0 0.68 0 0 Z " fill="#4BD3EA" transform="translate(84,97)"/>
<path d="M0 0 C1.95825873 -0.02694851 3.91662226 -0.04637218 5.875 -0.0625 C6.96554688 -0.07410156 8.05609375 -0.08570312 9.1796875 -0.09765625 C12 0 12 0 14 1 C13.67 1.66 13.34 2.32 13 3 C8.71 2.34 4.42 1.68 0 1 C0 0.67 0 0.34 0 0 Z " fill="#B5C7D8" transform="translate(122,88)"/>
<path d="M0 0 C0.33 0.66 0.66 1.32 1 2 C-0.8125 4 -0.8125 4 -3 6 C-3.99 6 -4.98 6 -6 6 C-6.33 6.66 -6.66 7.32 -7 8 C-7 7.01 -7 6.02 -7 5 C-5.46875 3.61328125 -5.46875 3.61328125 -3.5 2.3125 C-2.8503125 1.87550781 -2.200625 1.43851563 -1.53125 0.98828125 C-1.0259375 0.66214844 -0.520625 0.33601563 0 0 Z " fill="#58CAE2" transform="translate(79,58)"/>
<path d="M0 0 C3.34373475 0.55728913 6.03312999 1.35173889 9 3 C9 3.66 9 4.32 9 5 C2.25 3.375 2.25 3.375 0 0 Z " fill="#5AC1D9" transform="translate(130,59)"/>
<path d="M0 0 C-0.75 1.9375 -0.75 1.9375 -2 4 C-4.125 4.75 -4.125 4.75 -6 5 C-6 4.01 -6 3.02 -6 2 C-3 0 -3 0 0 0 Z " fill="#44D6F0" transform="translate(125,174)"/>
<path d="M0 0 C0.66 0.33 1.32 0.66 2 1 C-0.31 3.31 -2.62 5.62 -5 8 C-5.33 7.01 -5.66 6.02 -6 5 C-4.60210322 2.20420645 -2.7371003 1.40192942 0 0 Z " fill="#832780" transform="translate(129,157)"/>
<path d="M0 0 C-0.33 1.32 -0.66 2.64 -1 4 C-2.65 3.67 -4.3 3.34 -6 3 C-6 2.34 -6 1.68 -6 1 C-3 0 -3 0 0 0 Z " fill="#EFF1F7" transform="translate(105,120)"/>
<path d="M0 0 C0.33 0.99 0.66 1.98 1 3 C1.66 3.33 2.32 3.66 3 4 C1.625 6.5 1.625 6.5 0 9 C-0.66 9 -1.32 9 -2 9 C-1.41196203 5.97580475 -0.77321882 2.98241547 0 0 Z " fill="#C7E2F0" transform="translate(76,98)"/>
<path d="M0 0 C0 0.33 0 0.66 0 1 C-2.31 1 -4.62 1 -7 1 C-7.33 1.66 -7.66 2.32 -8 3 C-8 2.34 -8 1.68 -8 1 C-9.65 1 -11.3 1 -13 1 C-13 0.67 -13 0.34 -13 0 C-8.38926889 -1.29676812 -4.66159911 -0.71109139 0 0 Z " fill="#F1F3F3" transform="translate(119,63)"/>
<path d="M0 0 C2.475 0.99 2.475 0.99 5 2 C5 2.66 5 3.32 5 4 C3.35 4.33 1.7 4.66 0 5 C0 3.35 0 1.7 0 0 Z " fill="#40D6EB" transform="translate(158,145)"/>
<path d="M0 0 C1.65 0 3.3 0 5 0 C5.33 1.65 5.66 3.3 6 5 C4.02 4.01 2.04 3.02 0 2 C0 1.34 0 0.68 0 0 Z " fill="#F73783" transform="translate(94,140)"/>
<path d="M0 0 C1.32 1.32 2.64 2.64 4 4 C1.42786866 5.61949011 0.32330841 6.04408751 -2.75 5.625 C-3.4925 5.41875 -4.235 5.2125 -5 5 C-5 4.67 -5 4.34 -5 4 C-3.02 4 -1.04 4 1 4 C0.67 2.68 0.34 1.36 0 0 Z " fill="#D2558F" transform="translate(128,81)"/>
<path d="M0 0 C1.14926266 0.95421808 2.29430541 1.91352045 3.4375 2.875 C4.07558594 3.40867188 4.71367188 3.94234375 5.37109375 4.4921875 C7 6 7 6 8 8 C4.82461668 7.65978036 3.97723135 6.97533396 1.75 4.5625 C0 2 0 2 0 0 Z " fill="#59C5DD" transform="translate(119,39)"/>
<path d="M0 0 C0.94875 0.04125 1.8975 0.0825 2.875 0.125 C1.699375 1.053125 1.699375 1.053125 0.5 2 C-2.09337647 4.02358661 -2.09337647 4.02358661 -4.125 6.125 C-4.75 4.25 -4.75 4.25 -5.125 2.125 C-3.125 0.125 -3.125 0.125 0 0 Z " fill="#4676B4" transform="translate(128.125,163.875)"/>
<path d="M0 0 C1.485 0.99 1.485 0.99 3 2 C3 2.66 3 3.32 3 4 C4.32 4.66 5.64 5.32 7 6 C6.01 6.33 5.02 6.66 4 7 C1.8125 5.8125 1.8125 5.8125 0 4 C0 2.68 0 1.36 0 0 Z " fill="#6083B2" transform="translate(119,49)"/>
<path d="M0 0 C0 1.32 0 2.64 0 4 C-2.4375 3.625 -2.4375 3.625 -5 3 C-5.33 2.34 -5.66 1.68 -6 1 C-3.92446352 0.4465236 -2.15634036 0 0 0 Z " fill="#42D5F0" transform="translate(102,47)"/>
<path d="" fill="#00FFFF" transform="translate(0,0)"/>
</svg>
